<?xml version="1.0" encoding="UTF-8" standalone="no"?>
<!-- Created with Inkscape (http://www.inkscape.org/) -->

<svg
   width="24.615774mm"
   height="13.949891mm"
   viewBox="0 0 24.615774 13.949891"
   version="1.1"
   id="svg1"
   inkscape:version="1.3.2 (091e20ef0f, 2023-11-25, custom)"
   sodipodi:docname="deletion.svg"
   xmlns:inkscape="http://www.inkscape.org/namespaces/inkscape"
   xmlns:sodipodi="http://sodipodi.sourceforge.net/DTD/sodipodi-0.dtd"
   xmlns="http://www.w3.org/2000/svg"
   xmlns:svg="http://www.w3.org/2000/svg">
  <sodipodi:namedview
     id="namedview1"
     pagecolor="#505050"
     bordercolor="#ffffff"
     borderopacity="1"
     inkscape:showpageshadow="0"
     inkscape:pageopacity="0"
     inkscape:pagecheckerboard="1"
     inkscape:deskcolor="#d1d1d1"
     inkscape:document-units="mm"
     inkscape:zoom="4.610817"
     inkscape:cx="67.016323"
     inkscape:cy="25.049791"
     inkscape:window-width="1920"
     inkscape:window-height="1080"
     inkscape:window-x="0"
     inkscape:window-y="0"
     inkscape:window-maximized="1"
     inkscape:current-layer="layer1"
     showgrid="false" />
  <defs
     id="defs1">
    <clipPath
       clipPathUnits="userSpaceOnUse"
       id="clipPath87">
      <path
         d="M 0,56.806 H 534.167 V 0 H 0 Z"
         transform="translate(-338.12431,-45.969501)"
         id="path87" />
    </clipPath>
    <clipPath
       clipPathUnits="userSpaceOnUse"
       id="clipPath89">
      <path
         d="M 0,56.806 H 534.167 V 0 H 0 Z"
         transform="translate(-341.21421,-48.989501)"
         id="path89" />
    </clipPath>
    <clipPath
       clipPathUnits="userSpaceOnUse"
       id="clipPath91">
      <path
         d="M 0,56.806 H 534.167 V 0 H 0 Z"
         transform="translate(-284.1154,-48.711701)"
         id="path91" />
    </clipPath>
    <clipPath
       clipPathUnits="userSpaceOnUse"
       id="clipPath93">
      <path
         d="M 0,56.806 H 534.167 V 0 H 0 Z"
         transform="translate(-284.1154,-42.930701)"
         id="path93" />
    </clipPath>
    <clipPath
       clipPathUnits="userSpaceOnUse"
       id="clipPath95">
      <path
         d="M 0,56.806 H 534.167 V 0 H 0 Z"
         transform="translate(-284.1154,-37.149701)"
         id="path95" />
    </clipPath>
    <clipPath
       clipPathUnits="userSpaceOnUse"
       id="clipPath97">
      <path
         d="M 0,56.806 H 534.167 V 0 H 0 Z"
         transform="translate(-284.1154,-31.367701)"
         id="path97" />
    </clipPath>
    <clipPath
       clipPathUnits="userSpaceOnUse"
       id="clipPath99">
      <path
         d="M 0,56.806 H 534.167 V 0 H 0 Z"
         transform="translate(-284.1154,-25.586701)"
         id="path99" />
    </clipPath>
    <clipPath
       clipPathUnits="userSpaceOnUse"
       id="clipPath101">
      <path
         d="M 0,56.806 H 534.167 V 0 H 0 Z"
         id="path101" />
    </clipPath>
    <clipPath
       clipPathUnits="userSpaceOnUse"
       id="clipPath103">
      <path
         d="M 0,56.806 H 534.167 V 0 H 0 Z"
         id="path103" />
    </clipPath>
    <clipPath
       clipPathUnits="userSpaceOnUse"
       id="clipPath105">
      <path
         d="M 0,56.806 H 534.167 V 0 H 0 Z"
         transform="translate(-293.0254,-56.324701)"
         id="path105" />
    </clipPath>
    <clipPath
       clipPathUnits="userSpaceOnUse"
       id="clipPath107">
      <path
         d="M 0,56.806 H 534.167 V 0 H 0 Z"
         transform="translate(-308.33841,-47.938701)"
         id="path107" />
    </clipPath>
    <clipPath
       clipPathUnits="userSpaceOnUse"
       id="clipPath109">
      <path
         d="M 0,56.806 H 534.167 V 0 H 0 Z"
         transform="translate(-307.96741,-36.192701)"
         id="path109" />
    </clipPath>
    <clipPath
       clipPathUnits="userSpaceOnUse"
       id="clipPath111">
      <path
         d="M 0,56.806 H 534.167 V 0 H 0 Z"
         transform="translate(-317.88891,-40.039701)"
         id="path111" />
    </clipPath>
    <clipPath
       clipPathUnits="userSpaceOnUse"
       id="clipPath113">
      <path
         d="M 0,56.806 H 534.167 V 0 H 0 Z"
         transform="translate(-320.97941,-43.059701)"
         id="path113" />
    </clipPath>
    <clipPath
       clipPathUnits="userSpaceOnUse"
       id="clipPath115">
      <path
         d="M 0,56.806 H 534.167 V 0 H 0 Z"
         transform="translate(-337.64341,-45.363701)"
         id="path115" />
    </clipPath>
    <clipPath
       clipPathUnits="userSpaceOnUse"
       id="clipPath117">
      <path
         d="M 0,56.806 H 534.167 V 0 H 0 Z"
         transform="matrix(1,0,0,-1,-296.56881,2.3877003)"
         id="path117" />
    </clipPath>
  </defs>
  <g
     inkscape:label="Layer 1"
     inkscape:groupmode="layer"
     id="layer1"
     transform="translate(-118.26874,-75.141666)">
    <path
       id="path86"
       d="M 0,0 V -20.234"
       style="fill:none;stroke:#cccccc;stroke-width:0.78;stroke-linecap:butt;stroke-linejoin:miter;stroke-miterlimit:4;stroke-dasharray:none;stroke-opacity:1"
       transform="matrix(0.35277776,0,0,-0.35277776,137.54234,78.801806)"
       clip-path="url(#clipPath87)" />
    <path
       id="path88"
       d="m 0,0 h 0.145 0.011 0.145 c 1.18,-0.082 1.879,-1.039 1.879,-2.238 0,-0.586 -0.16,-1.25 -0.555,-1.883 -0.746,-1.25 -1.969,-1.934 -3.031,-1.934 -0.828,0 -1.535,0.406 -1.879,1.235 -0.105,0.324 -0.156,0.632 -0.156,0.972 0,1.77 1.601,3.735 3.441,3.848"
       style="fill:#cccccc;fill-opacity:1;fill-rule:nonzero;stroke:none"
       transform="matrix(0.35277776,0,0,-0.35277776,138.63239,77.736417)"
       clip-path="url(#clipPath89)" />
    <path
       id="path90"
       d="M 0,0 H 68.606"
       style="fill:none;stroke:#000000;stroke-width:0.52;stroke-linecap:butt;stroke-linejoin:miter;stroke-miterlimit:4;stroke-dasharray:none;stroke-opacity:1"
       transform="matrix(0.35277776,0,0,-0.35277776,118.4892,77.834419)"
       clip-path="url(#clipPath91)" />
    <path
       id="path92"
       d="M 0,0 H 68.606"
       style="fill:none;stroke:#000000;stroke-width:0.52;stroke-linecap:butt;stroke-linejoin:miter;stroke-miterlimit:4;stroke-dasharray:none;stroke-opacity:1"
       transform="matrix(0.35277776,0,0,-0.35277776,118.4892,79.873827)"
       clip-path="url(#clipPath93)" />
    <path
       id="path94"
       d="M 0,0 H 68.606"
       style="fill:none;stroke:#000000;stroke-width:0.52;stroke-linecap:butt;stroke-linejoin:miter;stroke-miterlimit:4;stroke-dasharray:none;stroke-opacity:1"
       transform="matrix(0.35277776,0,0,-0.35277776,118.4892,81.913236)"
       clip-path="url(#clipPath95)" />
    <path
       id="path96"
       d="M 0,0 H 68.606"
       style="fill:none;stroke:#000000;stroke-width:0.52;stroke-linecap:butt;stroke-linejoin:miter;stroke-miterlimit:4;stroke-dasharray:none;stroke-opacity:1"
       transform="matrix(0.35277776,0,0,-0.35277776,118.4892,83.952997)"
       clip-path="url(#clipPath97)" />
    <path
       id="path98"
       d="M 0,0 H 68.606"
       style="fill:none;stroke:#000000;stroke-width:0.52;stroke-linecap:butt;stroke-linejoin:miter;stroke-miterlimit:4;stroke-dasharray:none;stroke-opacity:1"
       transform="matrix(0.35277776,0,0,-0.35277776,118.4892,85.992405)"
       clip-path="url(#clipPath99)" />
    <path
       id="path100"
       d="m 352.721,48.896 h 0.469 V 25.408 h -0.469 z"
       style="fill:#000000;fill-opacity:1;fill-rule:nonzero;stroke:#000000;stroke-width:0.155;stroke-linecap:butt;stroke-linejoin:miter;stroke-miterlimit:4;stroke-dasharray:none;stroke-opacity:1"
       transform="matrix(0.35277776,0,0,-0.35277776,18.2596,95.018824)"
       clip-path="url(#clipPath101)" />
    <path
       id="path102"
       d="m 283.568,48.896 h 0.469 V 25.408 h -0.469 z"
       style="fill:#000000;fill-opacity:1;fill-rule:nonzero;stroke:#000000;stroke-width:0.155;stroke-linecap:butt;stroke-linejoin:miter;stroke-miterlimit:4;stroke-dasharray:none;stroke-opacity:1"
       transform="matrix(0.35277776,0,0,-0.35277776,18.2596,95.018824)"
       clip-path="url(#clipPath103)" />
    <path
       id="path104"
       d="m 0,0 c 0.028,0.02 0.055,0.02 0.094,0.02 0.16,0 0.352,-0.168 0.621,-0.586 1.09,-1.547 1.856,-4.242 1.856,-6.441 0,-0.168 -0.028,-0.301 -0.028,-0.465 -0.121,-2.617 -0.98,-4.762 -2.691,-6.793 l -0.457,-0.551 -0.164,-0.219 v -0.066 l 0.098,-0.496 0.144,-0.903 0.149,-0.832 c 0.203,-1.132 0.285,-1.715 0.285,-1.715 0,0 0.054,0 0.121,0.02 0.066,0 0.281,0.031 0.511,0.031 0.161,0 0.325,-0.031 0.403,-0.031 1.898,-0.301 3.367,-1.984 3.785,-4.348 0.082,-0.382 0.109,-0.8 0.109,-1.214 0,-2.247 -1.093,-4.395 -2.91,-5.411 -0.109,-0.086 -0.148,-0.101 -0.148,-0.101 v -0.016 c 0,0 0.082,-0.383 0.148,-0.816 l 0.203,-1.266 0.188,-1.015 c 0.105,-0.649 0.16,-1.118 0.16,-1.532 0,-0.367 -0.039,-0.699 -0.105,-1.082 -0.461,-2.316 -2.09,-3.695 -3.786,-3.695 -0.836,0 -1.695,0.332 -2.449,1.082 -0.676,0.699 -0.973,1.332 -0.973,2.164 0,1.465 0.958,2.496 1.954,2.496 0.351,0 0.699,-0.133 1.039,-0.383 0.562,-0.48 0.82,-1.215 0.82,-1.929 0,-1.102 -0.621,-2.184 -1.684,-2.266 h -0.109 l 0.082,-0.066 c 0.445,-0.235 0.891,-0.352 1.32,-0.352 1.09,0 2.114,0.684 2.735,1.867 0.347,0.664 0.539,1.449 0.539,2.231 0,0.3 -0.043,0.597 -0.094,0.933 0,0.032 -0.043,0.297 -0.098,0.547 -0.293,1.801 -0.468,2.848 -0.468,2.848 -0.028,0 -0.082,0 -0.121,-0.031 -0.137,-0.036 -0.418,-0.118 -0.54,-0.133 -0.296,-0.051 -0.578,-0.067 -0.847,-0.067 -2.641,0 -5.09,2.196 -5.942,5.442 -0.214,0.867 -0.336,1.734 -0.336,2.597 0,1.731 0.446,3.43 1.309,4.946 0.941,1.648 1.883,3.062 3.043,4.527 l 0.402,0.52 -0.093,0.613 -0.176,1.016 -0.227,1.3 c -0.07,0.481 -0.148,0.95 -0.164,1.047 -0.066,0.551 -0.105,1.082 -0.105,1.633 0,2.098 0.551,4.113 1.586,5.727 C -0.699,-0.714 -0.148,-0.047 0,0 M 0.821,-3.297 H 0.715 c -0.554,0 -1.265,-0.632 -1.754,-1.562 -0.496,-0.918 -0.754,-2.133 -0.754,-3.379 0,-0.336 0.016,-0.683 0.055,-1.035 0.043,-0.25 0.055,-0.414 0.164,-1.016 l 0.188,-1.047 c 0.054,-0.316 0.093,-0.566 0.093,-0.601 0.012,0 0.43,0.566 0.567,0.766 1.344,1.882 2.152,3.863 2.328,5.613 0.016,0.164 0.016,0.297 0.016,0.465 0,0.515 -0.055,1.015 -0.149,1.281 -0.109,0.265 -0.351,0.484 -0.648,0.515 m -2.032,-12.867 c -0.027,0.231 -0.07,0.414 -0.07,0.45 h -0.012 c -0.027,0 -0.605,-0.833 -1.011,-1.418 -0.684,-1.032 -1.414,-2.262 -1.707,-2.864 -0.567,-1.179 -0.852,-2.496 -0.852,-3.793 0,-0.851 0.137,-1.668 0.379,-2.449 0.727,-2.312 2.398,-3.762 4.215,-3.762 0.215,0 0.457,0.016 0.687,0.067 0.297,0.066 0.661,0.199 0.661,0.25 0,0 -0.028,0.164 -0.071,0.347 l -0.39,2.383 -0.309,1.782 -0.203,1.23 -0.215,1.199 c -0.105,0.715 -0.148,0.899 -0.148,0.899 0,0 0,0.015 -0.012,0.015 -0.082,0 -0.512,-0.265 -0.699,-0.429 -0.703,-0.602 -1.067,-1.551 -1.067,-2.481 0,-0.883 0.352,-1.766 1.024,-2.281 0.148,-0.117 0.203,-0.219 0.203,-0.336 v -0.082 c -0.028,-0.199 -0.121,-0.281 -0.254,-0.281 -0.055,0 -0.121,0.015 -0.203,0.066 -1.239,0.664 -2.074,2.246 -2.074,3.977 0,2 1.011,3.73 2.558,4.414 l 0.082,0.031 -0.137,0.836 -0.375,2.23 m 2.02,-5.562 c -0.109,0.015 -0.215,0.015 -0.297,0.015 H 0.418 0.352 l 0.051,-0.296 0.285,-1.633 0.176,-1.067 0.187,-1.047 0.375,-2.316 0.149,-0.883 c 0.054,-0.23 0.082,-0.433 0.093,-0.433 0.016,0 0.243,0.168 0.391,0.3 0.687,0.602 1.199,1.532 1.387,2.497 0.07,0.316 0.097,0.652 0.097,0.968 0,1.93 -1.16,3.68 -2.734,3.895"
       style="fill:#000000;fill-opacity:1;fill-rule:nonzero;stroke:none"
       transform="matrix(0.35277776,0,0,-0.35277776,121.63245,75.148722)"
       clip-path="url(#clipPath105)" />
    <path
       id="path106"
       d="M 0,0 H 0.258 C 0.473,0 0.754,0 0.82,-0.032 1.832,-0.184 2.641,-0.817 2.988,-1.7 3.109,-1.996 3.164,-2.313 3.164,-2.649 3.164,-3.461 2.801,-4.395 2.141,-5.094 1.683,-5.578 1.226,-5.875 0.512,-6.161 -0.418,-6.528 -1.211,-7.176 -1.723,-7.957 v -0.02 c 0,0 0.039,0.02 0.067,0.066 0.511,0.52 1.199,0.817 1.816,0.817 0.512,0 0.875,-0.113 1.363,-0.449 0.293,-0.184 0.563,-0.266 0.821,-0.266 0.105,0 0.215,0 0.336,0.035 0.175,0.047 0.363,0.215 0.429,0.348 0.043,0.117 0.11,0.168 0.192,0.168 0.105,0 0.215,-0.102 0.215,-0.25 0,-0.117 -0.122,-0.535 -0.231,-0.817 -0.43,-1.066 -1.184,-1.73 -1.91,-1.73 -0.055,0 -0.094,0 -0.149,0.016 -0.191,0 -0.269,0.066 -0.511,0.265 -0.512,0.418 -1.16,0.633 -1.727,0.633 -0.242,0 -0.457,-0.031 -0.66,-0.133 -0.266,-0.117 -0.523,-0.316 -0.605,-0.465 -0.04,-0.117 -0.106,-0.152 -0.188,-0.152 -0.066,0 -0.133,0.035 -0.176,0.133 l -0.027,0.051 v 0.234 c 0,0.199 0.016,0.266 0.016,0.332 0.011,0.051 0.027,0.148 0.027,0.234 0.242,1.399 1.062,2.645 2.18,3.262 0.918,0.535 1.523,1.484 1.628,2.68 0.032,0.101 0.032,0.183 0.032,0.285 0,1.066 -0.649,1.797 -1.563,1.797 h -0.215 c -0.136,-0.016 -0.175,-0.016 -0.175,-0.051 0,0 0,-0.016 0.039,-0.047 0.312,-0.219 0.457,-0.633 0.457,-1.035 0,-0.516 -0.215,-0.996 -0.633,-1.199 -0.133,-0.047 -0.27,-0.067 -0.375,-0.067 -0.567,0 -1.039,0.602 -1.039,1.317 0,0.133 0,0.265 0.031,0.418 0.199,0.765 1.156,1.398 2.262,1.547 M 0.422,-10.805 H 0.449 0.41 0.422 m 0,11.223 H 0.453 0.41 0.426"
       style="fill:#000000;fill-opacity:1;fill-rule:nonzero;stroke:none"
       transform="matrix(0.35277776,0,0,-0.35277776,127.03454,78.107116)"
       clip-path="url(#clipPath107)" />
    <path
       id="path108"
       d="m 0,0 c 0.015,0.019 0.203,0.019 0.781,0.019 h 0.606 1.359 l 0.043,-0.051 c 0.066,-0.05 0.105,-0.133 0.105,-0.199 0,-0.101 -0.039,-0.168 -0.093,-0.234 C 2.789,-0.516 2.668,-0.649 2.586,-0.797 L 1.871,-1.813 0.957,-3.094 0.472,-3.778 -0.254,-4.809 -1.211,-6.161 c -0.16,-0.25 -0.336,-0.449 -0.336,-0.449 0,-0.031 0.121,-0.031 1.238,-0.031 h 1.227 v 1.082 c 0,1.098 0,1.113 0.012,1.133 0.031,0.047 0.148,0.23 0.621,0.914 l 0.375,0.5 0.285,0.449 0.297,0.383 0.148,0.234 c 0.051,0.098 0.133,0.114 0.199,0.114 0.082,0 0.149,-0.047 0.192,-0.133 0.011,-0.047 0.011,-0.082 0.011,-1.313 v -1.051 -2.312 h 0.336 c 0.313,0 0.325,0 0.364,-0.02 0.109,-0.046 0.164,-0.183 0.164,-0.332 0,-0.082 -0.016,-0.183 -0.067,-0.25 C 3.773,-7.325 3.758,-7.325 3.394,-7.325 H 3.058 V -7.61 c 0.016,-0.847 0.149,-1.179 0.676,-1.531 0.188,-0.117 0.227,-0.148 0.227,-0.316 0,-0.118 -0.028,-0.165 -0.094,-0.231 L 3.828,-9.707 H 0.152 l -0.043,0.019 c -0.078,0.066 -0.094,0.113 -0.094,0.231 0,0.168 0.016,0.199 0.215,0.316 0.528,0.352 0.66,0.684 0.66,1.531 v 0.285 H -0.656 C -0.942,-7.36 -1.168,-7.36 -1.36,-7.36 c -0.847,0 -0.859,0.035 -0.875,0.035 -0.078,0.032 -0.105,0.133 -0.105,0.25 0,0.118 0,0.118 0.27,0.5 1.128,1.696 1.925,4.16 1.925,6.125 0,0.301 0.039,0.399 0.149,0.45 M 0.808,-10.622 H 0.824 0.785 0.812 m 0,11.223 H 0.828 0.785 Z"
       style="fill:#000000;fill-opacity:1;fill-rule:nonzero;stroke:none"
       transform="matrix(0.35277776,0,0,-0.35277776,126.90365,82.250844)"
       clip-path="url(#clipPath109)" />
    <path
       id="path110"
       d="M 0,0 V -20.234"
       style="fill:none;stroke:#000000;stroke-width:0.78;stroke-linecap:butt;stroke-linejoin:miter;stroke-miterlimit:4;stroke-dasharray:none;stroke-opacity:1"
       transform="matrix(0.35277776,0,0,-0.35277776,130.40374,80.893708)"
       clip-path="url(#clipPath111)" />
    <path
       id="path112"
       d="M 0,0 H 0.144 0.156 0.3 c 1.184,-0.082 1.879,-1.039 1.879,-2.239 0,-0.585 -0.16,-1.25 -0.551,-1.882 -0.75,-1.25 -1.972,-1.934 -3.035,-1.934 -0.828,0 -1.535,0.406 -1.875,1.234 -0.105,0.325 -0.16,0.633 -0.16,0.973 0,1.77 1.602,3.734 3.442,3.848"
       style="fill:#000000;fill-opacity:1;fill-rule:nonzero;stroke:none"
       transform="matrix(0.35277776,0,0,-0.35277776,131.494,79.828319)"
       clip-path="url(#clipPath113)" />
    <path
       id="path114"
       d="m 0,0 c 0.015,0 0.027,0.016 0.054,0.016 0.067,0 0.117,-0.047 0.223,-0.16 0.039,-0.066 0.105,-0.133 0.144,-0.18 l 0.196,-0.195 0.199,-0.227 0.145,-0.164 0.156,-0.176 0.629,-0.683 0.961,-1.07 c 0.484,-0.52 0.484,-0.52 0.484,-0.633 V -3.586 L 3.074,-3.816 C 2.429,-5 2.101,-6.363 2.101,-7.613 c 0,-1.301 0.344,-2.515 1.039,-3.344 0.09,-0.148 0.145,-0.179 0.145,-0.226 0.011,-0.051 0.011,-0.067 0.011,-0.113 0,-0.133 -0.078,-0.247 -0.195,-0.247 H 3.035 c -0.133,0.067 -0.278,0.083 -0.434,0.083 -0.316,0 -0.656,-0.114 -0.933,-0.34 -0.524,-0.438 -0.813,-1.137 -0.813,-1.918 0,-0.715 0.262,-1.508 0.762,-2.125 0.129,-0.164 0.172,-0.262 0.172,-0.34 0,-0.067 -0.028,-0.113 -0.055,-0.164 -0.066,-0.047 -0.09,-0.098 -0.133,-0.098 -0.062,0 -0.144,0.082 -0.246,0.164 -1.144,1.137 -1.84,2.367 -1.996,3.473 v 0.39 c 0,0.129 0,0.293 0.012,0.356 0.195,0.992 0.945,1.59 1.929,1.59 0.25,0 0.539,-0.031 0.801,-0.129 0.039,0 0.078,-0.016 0.078,-0.016 0,0.016 -0.078,0.114 -0.183,0.211 l -0.578,0.633 -0.801,0.91 c -0.985,1.055 -1.035,1.137 -1.035,1.219 v 0.047 0.015 c 0,0.098 0,0.098 0.105,0.293 0.734,1.219 1.113,2.645 1.113,3.93 0,1.117 -0.289,2.156 -0.839,2.856 -0.079,0.097 -0.106,0.21 -0.106,0.277 0,0.113 0.055,0.176 0.145,0.226"
       style="fill:#9e2a2b;fill-opacity:1;fill-rule:nonzero;stroke:none"
       transform="matrix(0.35277776,0,0,-0.35277776,137.37269,79.015519)"
       clip-path="url(#clipPath115)" />
  </g>
</svg>
