<?xml version="1.0" encoding="UTF-8" standalone="no"?>
<!-- Created with Inkscape (http://www.inkscape.org/) -->

<svg
   width="24.615597mm"
   height="13.949891mm"
   viewBox="0 0 24.615597 13.949891"
   version="1.1"
   id="svg1"
   inkscape:version="1.3.2 (091e20ef0f, 2023-11-25, custom)"
   sodipodi:docname="translocation.svg"
   xmlns:inkscape="http://www.inkscape.org/namespaces/inkscape"
   xmlns:sodipodi="http://sodipodi.sourceforge.net/DTD/sodipodi-0.dtd"
   xmlns="http://www.w3.org/2000/svg"
   xmlns:svg="http://www.w3.org/2000/svg">
  <sodipodi:namedview
     id="namedview1"
     pagecolor="#505050"
     bordercolor="#ffffff"
     borderopacity="1"
     inkscape:showpageshadow="0"
     inkscape:pageopacity="0"
     inkscape:pagecheckerboard="1"
     inkscape:deskcolor="#d1d1d1"
     inkscape:document-units="mm"
     inkscape:zoom="0.91218254"
     inkscape:cx="4.3850872"
     inkscape:cy="8.7701744"
     inkscape:window-width="636"
     inkscape:window-height="1049"
     inkscape:window-x="1280"
     inkscape:window-y="0"
     inkscape:window-maximized="1"
     inkscape:current-layer="layer1" />
  <defs
     id="defs1">
    <clipPath
       clipPathUnits="userSpaceOnUse"
       id="clipPath119">
      <path
         d="M 0,56.806 H 534.167 V 0 H 0 Z"
         transform="translate(-408.25451,-40.258901)"
         id="path119" />
    </clipPath>
    <clipPath
       clipPathUnits="userSpaceOnUse"
       id="clipPath121">
      <path
         d="M 0,56.806 H 534.167 V 0 H 0 Z"
         transform="translate(-411.34501,-43.278901)"
         id="path121" />
    </clipPath>
    <clipPath
       clipPathUnits="userSpaceOnUse"
       id="clipPath123">
      <path
         d="M 0,56.806 H 534.167 V 0 H 0 Z"
         transform="translate(-426.27011,-46.258901)"
         id="path123" />
    </clipPath>
    <clipPath
       clipPathUnits="userSpaceOnUse"
       id="clipPath125">
      <path
         d="M 0,56.806 H 534.167 V 0 H 0 Z"
         transform="translate(-429.36001,-49.278901)"
         id="path125" />
    </clipPath>
    <clipPath
       clipPathUnits="userSpaceOnUse"
       id="clipPath127">
      <path
         d="M 0,56.806 H 534.167 V 0 H 0 Z"
         transform="translate(-374.44541,-48.924501)"
         id="path127" />
    </clipPath>
    <clipPath
       clipPathUnits="userSpaceOnUse"
       id="clipPath129">
      <path
         d="M 0,56.806 H 534.167 V 0 H 0 Z"
         transform="translate(-374.44541,-43.143501)"
         id="path129" />
    </clipPath>
    <clipPath
       clipPathUnits="userSpaceOnUse"
       id="clipPath131">
      <path
         d="M 0,56.806 H 534.167 V 0 H 0 Z"
         transform="translate(-374.44541,-37.362501)"
         id="path131" />
    </clipPath>
    <clipPath
       clipPathUnits="userSpaceOnUse"
       id="clipPath133">
      <path
         d="M 0,56.806 H 534.167 V 0 H 0 Z"
         transform="translate(-374.44541,-31.581501)"
         id="path133" />
    </clipPath>
    <clipPath
       clipPathUnits="userSpaceOnUse"
       id="clipPath135">
      <path
         d="M 0,56.806 H 534.167 V 0 H 0 Z"
         transform="translate(-374.44541,-25.799501)"
         id="path135" />
    </clipPath>
    <clipPath
       clipPathUnits="userSpaceOnUse"
       id="clipPath137">
      <path
         d="M 0,56.806 H 534.167 V 0 H 0 Z"
         id="path137" />
    </clipPath>
    <clipPath
       clipPathUnits="userSpaceOnUse"
       id="clipPath139">
      <path
         d="M 0,56.806 H 534.167 V 0 H 0 Z"
         id="path139" />
    </clipPath>
    <clipPath
       clipPathUnits="userSpaceOnUse"
       id="clipPath141">
      <path
         d="M 0,56.806 H 534.167 V 0 H 0 Z"
         transform="translate(-383.35541,-56.538501)"
         id="path141" />
    </clipPath>
    <clipPath
       clipPathUnits="userSpaceOnUse"
       id="clipPath143">
      <path
         d="M 0,56.806 H 534.167 V 0 H 0 Z"
         transform="translate(-398.66841,-48.151501)"
         id="path143" />
    </clipPath>
    <clipPath
       clipPathUnits="userSpaceOnUse"
       id="clipPath145">
      <path
         d="M 0,56.806 H 534.167 V 0 H 0 Z"
         transform="translate(-398.29741,-36.405501)"
         id="path145" />
    </clipPath>
    <clipPath
       clipPathUnits="userSpaceOnUse"
       id="clipPath147">
      <path
         d="M 0,56.806 H 534.167 V 0 H 0 Z"
         transform="translate(-405.48841,-37.362501)"
         id="path147" />
    </clipPath>
    <clipPath
       clipPathUnits="userSpaceOnUse"
       id="clipPath149">
      <path
         d="M 0,56.806 H 534.167 V 0 H 0 Z"
         transform="translate(-405.48841,-25.799501)"
         id="path149" />
    </clipPath>
    <clipPath
       clipPathUnits="userSpaceOnUse"
       id="clipPath151">
      <path
         d="M 0,56.806 H 534.167 V 0 H 0 Z"
         transform="translate(-414.59041,-42.264501)"
         id="path151" />
    </clipPath>
    <clipPath
       clipPathUnits="userSpaceOnUse"
       id="clipPath153">
      <path
         d="M 0,56.806 H 534.167 V 0 H 0 Z"
         transform="translate(-423.68001,-51.815501)"
         id="path153" />
    </clipPath>
    <clipPath
       clipPathUnits="userSpaceOnUse"
       id="clipPath155">
      <path
         d="M 0,56.806 H 534.167 V 0 H 0 Z"
         transform="translate(-426.76541,-54.835501)"
         id="path155" />
    </clipPath>
    <clipPath
       clipPathUnits="userSpaceOnUse"
       id="clipPath157">
      <path
         d="M 0,56.806 H 534.167 V 0 H 0 Z"
         transform="translate(-426.69941,-47.159501)"
         id="path157" />
    </clipPath>
    <clipPath
       clipPathUnits="userSpaceOnUse"
       id="clipPath159">
      <path
         d="M 0,56.806 H 534.167 V 0 H 0 Z"
         transform="translate(-433.32031,-51.815501)"
         id="path159" />
    </clipPath>
    <clipPath
       clipPathUnits="userSpaceOnUse"
       id="clipPath161">
      <path
         d="M 0,56.806 H 534.167 V 0 H 0 Z"
         transform="translate(-436.41041,-54.835501)"
         id="path161" />
    </clipPath>
    <clipPath
       clipPathUnits="userSpaceOnUse"
       id="clipPath163">
      <path
         d="M 0,56.806 H 534.167 V 0 H 0 Z"
         transform="matrix(1,0,0,-1,-374.76901,2.2725003)"
         id="path163" />
    </clipPath>
  </defs>
  <g
     inkscape:label="Layer 1"
     inkscape:groupmode="layer"
     id="layer1"
     transform="translate(-94.985416,-117.475)">
    <path
       id="path118"
       d="M 0,0 V -20.234"
       style="fill:none;stroke:#cccccc;stroke-width:0.78;stroke-linecap:butt;stroke-linejoin:miter;stroke-miterlimit:4;stroke-dasharray:none;stroke-opacity:1"
       transform="matrix(0.35277776,0,0,-0.35277776,107.13297,123.22337)"
       clip-path="url(#clipPath119)" />
    <path
       id="path120"
       d="M 0,0 H 0.144 0.156 0.3 c 1.184,-0.082 1.879,-1.039 1.879,-2.238 0,-0.586 -0.16,-1.25 -0.551,-1.883 -0.75,-1.25 -1.972,-1.934 -3.035,-1.934 -0.828,0 -1.535,0.406 -1.875,1.235 -0.105,0.324 -0.16,0.632 -0.16,0.972 0,1.77 1.602,3.735 3.442,3.848"
       style="fill:#cccccc;fill-opacity:1;fill-rule:nonzero;stroke:none"
       transform="matrix(0.35277776,0,0,-0.35277776,108.22323,122.15798)"
       clip-path="url(#clipPath121)" />
    <path
       id="path122"
       d="M 0,0 V -20.234"
       style="fill:none;stroke:#cccccc;stroke-width:0.78;stroke-linecap:butt;stroke-linejoin:miter;stroke-miterlimit:4;stroke-dasharray:none;stroke-opacity:1"
       transform="matrix(0.35277776,0,0,-0.35277776,113.48847,121.1067)"
       clip-path="url(#clipPath123)" />
    <path
       id="path124"
       d="m 0,0 h 0.145 0.011 0.145 c 1.18,-0.082 1.879,-1.039 1.879,-2.238 0,-0.586 -0.16,-1.25 -0.555,-1.883 -0.746,-1.25 -1.969,-1.934 -3.031,-1.934 -0.828,0 -1.535,0.406 -1.879,1.235 -0.105,0.324 -0.156,0.632 -0.156,0.972 0,1.77 1.601,3.735 3.441,3.848"
       style="fill:#cccccc;fill-opacity:1;fill-rule:nonzero;stroke:none"
       transform="matrix(0.35277776,0,0,-0.35277776,114.57852,120.04131)"
       clip-path="url(#clipPath125)" />
    <path
       id="path126"
       d="M 0,0 H 68.605"
       style="fill:none;stroke:#000000;stroke-width:0.52;stroke-linecap:butt;stroke-linejoin:miter;stroke-miterlimit:4;stroke-dasharray:none;stroke-opacity:1"
       transform="matrix(0.35277776,0,0,-0.35277776,95.205871,120.16634)"
       clip-path="url(#clipPath127)" />
    <path
       id="path128"
       d="M 0,0 H 68.605"
       style="fill:none;stroke:#000000;stroke-width:0.52;stroke-linecap:butt;stroke-linejoin:miter;stroke-miterlimit:4;stroke-dasharray:none;stroke-opacity:1"
       transform="matrix(0.35277776,0,0,-0.35277776,95.205871,122.20575)"
       clip-path="url(#clipPath129)" />
    <path
       id="path130"
       d="M 0,0 H 68.605"
       style="fill:none;stroke:#000000;stroke-width:0.52;stroke-linecap:butt;stroke-linejoin:miter;stroke-miterlimit:4;stroke-dasharray:none;stroke-opacity:1"
       transform="matrix(0.35277776,0,0,-0.35277776,95.205871,124.24515)"
       clip-path="url(#clipPath131)" />
    <path
       id="path132"
       d="M 0,0 H 68.605"
       style="fill:none;stroke:#000000;stroke-width:0.52;stroke-linecap:butt;stroke-linejoin:miter;stroke-miterlimit:4;stroke-dasharray:none;stroke-opacity:1"
       transform="matrix(0.35277776,0,0,-0.35277776,95.205871,126.28456)"
       clip-path="url(#clipPath133)" />
    <path
       id="path134"
       d="M 0,0 H 68.605"
       style="fill:none;stroke:#000000;stroke-width:0.52;stroke-linecap:butt;stroke-linejoin:miter;stroke-miterlimit:4;stroke-dasharray:none;stroke-opacity:1"
       transform="matrix(0.35277776,0,0,-0.35277776,95.205871,128.32432)"
       clip-path="url(#clipPath135)" />
    <path
       id="path136"
       d="m 443.05,49.213 h 0.469 V 25.51 h -0.469 z"
       style="fill:#000000;fill-opacity:1;fill-rule:nonzero;stroke:#000000;stroke-width:0.156;stroke-linecap:butt;stroke-linejoin:miter;stroke-miterlimit:4;stroke-dasharray:none;stroke-opacity:1"
       transform="matrix(0.35277776,0,0,-0.35277776,-36.890143,137.42581)"
       clip-path="url(#clipPath137)" />
    <path
       id="path138"
       d="m 373.898,49.104 h 0.469 V 25.616 h -0.469 z"
       style="fill:#000000;fill-opacity:1;fill-rule:nonzero;stroke:#000000;stroke-width:0.155;stroke-linecap:butt;stroke-linejoin:miter;stroke-miterlimit:4;stroke-dasharray:none;stroke-opacity:1"
       transform="matrix(0.35277776,0,0,-0.35277776,-36.890143,137.42581)"
       clip-path="url(#clipPath139)" />
    <path
       id="path140"
       d="m 0,0 c 0.028,0.015 0.055,0.015 0.094,0.015 0.16,0 0.351,-0.168 0.621,-0.582 1.09,-1.547 1.856,-4.246 1.856,-6.445 0,-0.164 -0.028,-0.297 -0.028,-0.465 -0.121,-2.613 -0.98,-4.762 -2.691,-6.793 l -0.457,-0.551 -0.164,-0.214 v -0.067 l 0.093,-0.5 0.149,-0.898 0.148,-0.832 c 0.203,-1.133 0.285,-1.715 0.285,-1.715 0,0 0.051,0 0.122,0.015 0.066,0 0.281,0.036 0.511,0.036 0.16,0 0.321,-0.036 0.403,-0.036 1.898,-0.3 3.367,-1.98 3.785,-4.343 0.082,-0.383 0.105,-0.801 0.105,-1.219 0,-2.246 -1.09,-4.395 -2.906,-5.41 -0.109,-0.082 -0.148,-0.098 -0.148,-0.098 v -0.019 c 0,0 0.082,-0.383 0.148,-0.813 l 0.203,-1.266 0.188,-1.015 c 0.105,-0.653 0.16,-1.117 0.16,-1.535 0,-0.364 -0.039,-0.7 -0.106,-1.082 -0.461,-2.313 -2.09,-3.696 -3.785,-3.696 -0.836,0 -1.699,0.332 -2.453,1.082 -0.672,0.7 -0.969,1.332 -0.969,2.164 0,1.465 0.957,2.5 1.953,2.5 0.352,0 0.7,-0.132 1.039,-0.382 0.563,-0.485 0.821,-1.219 0.821,-1.934 0,-1.098 -0.621,-2.18 -1.684,-2.262 h -0.109 l 0.082,-0.07 c 0.445,-0.23 0.89,-0.348 1.32,-0.348 1.09,0 2.113,0.684 2.735,1.864 0.347,0.668 0.539,1.449 0.539,2.23 0,0.301 -0.043,0.602 -0.098,0.934 0,0.035 -0.039,0.3 -0.094,0.55 -0.297,1.797 -0.469,2.848 -0.469,2.848 -0.027,0 -0.082,0 -0.121,-0.035 -0.136,-0.031 -0.418,-0.117 -0.539,-0.133 -0.297,-0.051 -0.582,-0.066 -0.847,-0.066 -2.641,0 -5.094,2.199 -5.942,5.445 -0.215,0.863 -0.336,1.731 -0.336,2.598 0,1.73 0.446,3.429 1.305,4.945 0.945,1.648 1.887,3.063 3.047,4.527 l 0.402,0.516 -0.094,0.617 -0.175,1.016 -0.231,1.297 c -0.066,0.484 -0.144,0.949 -0.16,1.05 -0.066,0.547 -0.109,1.083 -0.109,1.629 0,2.102 0.554,4.114 1.589,5.731 C -0.699,-0.715 -0.148,-0.051 0,0 M 0.821,-3.297 H 0.715 c -0.555,0 -1.27,-0.633 -1.754,-1.567 -0.496,-0.914 -0.754,-2.128 -0.754,-3.378 0,-0.333 0.016,-0.684 0.055,-1.032 0.039,-0.25 0.055,-0.418 0.16,-1.015 l 0.191,-1.051 c 0.055,-0.317 0.094,-0.567 0.094,-0.598 0.012,0 0.43,0.567 0.567,0.766 1.343,1.879 2.152,3.863 2.328,5.609 0.015,0.168 0.015,0.301 0.015,0.469 0,0.516 -0.054,1.016 -0.148,1.281 -0.109,0.266 -0.352,0.481 -0.648,0.516 m -2.032,-12.871 c -0.027,0.234 -0.07,0.418 -0.07,0.449 h -0.012 c -0.027,0 -0.605,-0.832 -1.012,-1.414 -0.683,-1.031 -1.414,-2.266 -1.707,-2.863 -0.566,-1.184 -0.851,-2.5 -0.851,-3.797 0,-0.848 0.137,-1.664 0.379,-2.449 0.726,-2.313 2.394,-3.762 4.215,-3.762 0.214,0 0.457,0.015 0.687,0.066 0.297,0.067 0.66,0.199 0.66,0.25 0,0 -0.027,0.168 -0.07,0.352 l -0.391,2.379 -0.308,1.781 -0.203,1.234 -0.215,1.2 c -0.106,0.714 -0.149,0.898 -0.149,0.898 0,0 0,0.016 -0.011,0.016 -0.082,0 -0.512,-0.266 -0.7,-0.434 -0.703,-0.598 -1.066,-1.547 -1.066,-2.48 0,-0.883 0.352,-1.766 1.023,-2.282 0.149,-0.117 0.204,-0.215 0.204,-0.332 v -0.082 c -0.028,-0.203 -0.121,-0.285 -0.258,-0.285 -0.051,0 -0.121,0.016 -0.199,0.066 -1.239,0.668 -2.075,2.25 -2.075,3.981 0,1.996 1.008,3.73 2.559,4.41 l 0.082,0.035 -0.137,0.832 -0.375,2.231 m 2.02,-5.559 c -0.11,0.016 -0.215,0.016 -0.297,0.016 H 0.418 0.348 l 0.055,-0.301 0.285,-1.633 0.172,-1.062 0.191,-1.051 0.375,-2.313 0.148,-0.882 c 0.055,-0.235 0.082,-0.434 0.094,-0.434 0.016,0 0.242,0.168 0.391,0.301 0.687,0.597 1.199,1.531 1.386,2.496 0.071,0.316 0.098,0.648 0.098,0.965 0,1.933 -1.16,3.679 -2.734,3.898"
       style="fill:#000000;fill-opacity:1;fill-rule:nonzero;stroke:none"
       transform="matrix(0.35277776,0,0,-0.35277776,98.349121,117.48029)"
       clip-path="url(#clipPath141)" />
    <path
       id="path142"
       d="M 0,0 H 0.254 C 0.472,0 0.754,0 0.82,-0.035 1.832,-0.184 2.64,-0.816 2.988,-1.699 3.109,-2 3.164,-2.316 3.164,-2.648 3.164,-3.465 2.8,-4.398 2.14,-5.098 1.683,-5.578 1.226,-5.879 0.511,-6.16 -0.418,-6.527 -1.211,-7.176 -1.723,-7.961 v -0.016 c 0,0 0.039,0.016 0.066,0.067 0.512,0.515 1.2,0.816 1.817,0.816 0.512,0 0.875,-0.117 1.363,-0.449 0.293,-0.184 0.563,-0.266 0.82,-0.266 0.106,0 0.215,0 0.336,0.032 0.176,0.05 0.364,0.218 0.43,0.351 0.043,0.113 0.109,0.164 0.191,0.164 0.106,0 0.215,-0.097 0.215,-0.25 0,-0.117 -0.121,-0.531 -0.23,-0.816 -0.43,-1.063 -1.184,-1.731 -1.91,-1.731 -0.055,0 -0.098,0 -0.149,0.016 -0.191,0 -0.269,0.066 -0.511,0.27 -0.512,0.414 -1.161,0.632 -1.727,0.632 -0.242,0 -0.457,-0.035 -0.66,-0.132 -0.27,-0.118 -0.524,-0.317 -0.606,-0.469 -0.039,-0.117 -0.105,-0.149 -0.187,-0.149 -0.067,0 -0.133,0.032 -0.176,0.133 l -0.027,0.051 v 0.23 c 0,0.204 0.015,0.27 0.015,0.336 0.012,0.047 0.028,0.149 0.028,0.231 0.242,1.398 1.062,2.648 2.179,3.265 0.918,0.532 1.524,1.481 1.629,2.68 0.032,0.098 0.032,0.184 0.032,0.281 0,1.067 -0.649,1.801 -1.563,1.801 h -0.215 c -0.137,-0.019 -0.176,-0.019 -0.176,-0.051 0,0 0,-0.015 0.039,-0.05 0.309,-0.215 0.458,-0.633 0.458,-1.032 0,-0.515 -0.215,-1 -0.633,-1.199 -0.133,-0.051 -0.27,-0.066 -0.375,-0.066 -0.567,0 -1.039,0.597 -1.039,1.316 0,0.133 0,0.266 0.031,0.414 0.199,0.766 1.156,1.399 2.262,1.551 M 0.422,-10.809 H 0.449 0.41 0.422 m 0,11.223 H 0.449 0.41 0.425"
       style="fill:#000000;fill-opacity:1;fill-rule:nonzero;stroke:none"
       transform="matrix(0.35277776,0,0,-0.35277776,103.75121,120.43904)"
       clip-path="url(#clipPath143)" />
    <path
       id="path144"
       d="m 0,0 c 0.015,0.015 0.203,0.015 0.781,0.015 h 0.605 1.36 l 0.043,-0.05 C 2.855,-0.082 2.894,-0.168 2.894,-0.235 2.894,-0.332 2.855,-0.399 2.8,-0.469 2.789,-0.516 2.668,-0.649 2.586,-0.801 L 1.871,-1.817 0.957,-3.098 0.472,-3.781 -0.254,-4.813 -1.211,-6.16 c -0.16,-0.25 -0.336,-0.449 -0.336,-0.449 0,-0.036 0.121,-0.036 1.238,-0.036 h 1.227 v 1.082 c 0,1.102 0,1.118 0.011,1.133 0.028,0.051 0.149,0.235 0.621,0.914 l 0.375,0.5 0.286,0.449 0.296,0.383 0.149,0.235 c 0.051,0.101 0.133,0.117 0.199,0.117 0.082,0 0.148,-0.051 0.191,-0.133 0.012,-0.051 0.012,-0.082 0.012,-1.316 v -1.047 -2.317 h 0.336 c 0.313,0 0.324,0 0.363,-0.015 0.11,-0.051 0.164,-0.184 0.164,-0.332 0,-0.086 -0.015,-0.184 -0.07,-0.25 C 3.773,-7.328 3.757,-7.328 3.394,-7.328 H 3.058 v -0.281 c 0.016,-0.848 0.149,-1.184 0.672,-1.532 0.191,-0.117 0.231,-0.152 0.231,-0.316 0,-0.117 -0.028,-0.168 -0.094,-0.235 L 3.828,-9.707 h -3.68 l -0.039,0.015 c -0.082,0.067 -0.094,0.118 -0.094,0.235 0,0.164 0.016,0.199 0.215,0.316 0.527,0.348 0.66,0.684 0.66,1.532 v 0.281 h -1.547 c -0.285,-0.031 -0.511,-0.031 -0.703,-0.031 -0.847,0 -0.859,0.031 -0.875,0.031 -0.078,0.035 -0.105,0.133 -0.105,0.25 0,0.117 0,0.117 0.269,0.5 1.129,1.699 1.926,4.164 1.926,6.129 0,0.297 0.039,0.398 0.148,0.449 M 0.808,-10.625 H 0.824 0.785 0.812 m 0,11.223 H 0.828 0.785 Z"
       style="fill:#000000;fill-opacity:1;fill-rule:nonzero;stroke:none"
       transform="matrix(0.35277776,0,0,-0.35277776,103.62033,124.58276)"
       clip-path="url(#clipPath145)" />
    <path
       id="path146"
       d="M 0,0 H 37.562"
       style="fill:none;stroke:#000000;stroke-width:0.52;stroke-linecap:butt;stroke-linejoin:miter;stroke-miterlimit:4;stroke-dasharray:none;stroke-opacity:1"
       transform="matrix(0.35277776,0,0,-0.35277776,106.15715,124.24515)"
       clip-path="url(#clipPath147)" />
    <path
       id="path148"
       d="M 0,0 H 37.562"
       style="fill:none;stroke:#000000;stroke-width:0.52;stroke-linecap:butt;stroke-linejoin:miter;stroke-miterlimit:4;stroke-dasharray:none;stroke-opacity:1"
       transform="matrix(0.35277776,0,0,-0.35277776,106.15715,128.32432)"
       clip-path="url(#clipPath149)" />
    <path
       id="path150"
       d="m 0,0 c 0.066,0 0.132,0.016 0.199,0.016 0.601,0 1.156,-0.535 1.301,-1.281 0.023,-0.133 0.039,-0.262 0.039,-0.407 0,-0.422 -0.121,-0.843 -0.356,-1.136 l -0.039,-0.051 0.09,0.015 c 0.711,0.247 1.34,1.024 1.641,1.981 0.015,0.082 0.054,0.148 0.082,0.164 0.05,0.098 0.129,0.129 0.207,0.129 0.144,0 0.265,-0.129 0.265,-0.324 0,-0.082 -1.906,-8.2 -1.945,-8.278 -0.051,-0.113 -0.145,-0.164 -0.25,-0.164 -0.106,0 -0.207,0.067 -0.25,0.211 -0.024,0.016 -0.024,0.031 -0.024,0.067 0,0.129 0.118,0.582 0.735,3.195 0.394,1.656 0.723,3.019 0.723,3.055 0,0 -0.055,-0.051 -0.106,-0.114 -0.484,-0.457 -1.062,-0.683 -1.629,-0.683 -0.5,0 -0.984,0.179 -1.363,0.57 -0.344,0.34 -0.473,0.809 -0.473,1.281 0,0.813 0.418,1.59 1.153,1.754"
       style="fill:#9e2a2b;fill-opacity:1;fill-rule:nonzero;stroke:none"
       transform="matrix(0.35277776,0,0,-0.35277776,109.36814,122.51584)"
       clip-path="url(#clipPath151)" />
    <path
       id="path152"
       d="M 0,0 V -20.234"
       style="fill:none;stroke:#9e2a2b;stroke-width:0.78;stroke-linecap:butt;stroke-linejoin:miter;stroke-miterlimit:4;stroke-dasharray:none;stroke-opacity:1"
       transform="matrix(0.35277776,0,0,-0.35277776,112.57474,119.14646)"
       clip-path="url(#clipPath153)" />
    <path
       id="path154"
       d="m 0,0 h 0.145 0.016 0.144 c 1.18,-0.082 1.875,-1.039 1.875,-2.243 0,-0.586 -0.156,-1.25 -0.551,-1.882 -0.746,-1.25 -1.968,-1.934 -3.031,-1.934 -0.828,0 -1.535,0.406 -1.879,1.234 -0.105,0.325 -0.156,0.633 -0.156,0.977 0,1.769 1.601,3.73 3.437,3.848"
       style="fill:#9e2a2b;fill-opacity:1;fill-rule:nonzero;stroke:none"
       transform="matrix(0.35277776,0,0,-0.35277776,113.6632,118.08107)"
       clip-path="url(#clipPath155)" />
    <path
       id="path156"
       d="m 0,0 c 0.023,0.015 0.062,0.015 0.105,0.015 0.09,0 0.168,-0.078 0.274,-0.289 0.933,-1.754 1.418,-3.769 1.418,-5.715 0,-0.339 0,-0.667 -0.039,-0.976 -0.157,-1.848 -0.789,-3.539 -1.735,-4.625 -1.007,-1.168 -1.691,-2.109 -2.296,-3.199 -0.34,-0.582 -0.668,-1.297 -0.762,-1.657 -0.039,-0.113 -0.145,-0.226 -0.235,-0.226 h -0.027 v 5.051 h 0.066 c 0.34,0 1.024,0.144 1.469,0.324 1.723,0.73 2.875,3.117 2.875,5.844 0,0.226 -0.012,0.468 -0.023,0.699 -0.121,1.41 -0.528,2.887 -1.168,4.105 -0.067,0.129 -0.106,0.262 -0.106,0.356 0,0.133 0.051,0.246 0.184,0.293"
       style="fill:#9e2a2b;fill-opacity:1;fill-rule:nonzero;stroke:none"
       transform="matrix(0.35277776,0,0,-0.35277776,113.63992,120.78899)"
       clip-path="url(#clipPath157)" />
    <path
       id="path158"
       d="M 0,0 V -20.234"
       style="fill:none;stroke:#9e2a2b;stroke-width:0.78;stroke-linecap:butt;stroke-linejoin:miter;stroke-miterlimit:4;stroke-dasharray:none;stroke-opacity:1"
       transform="matrix(0.35277776,0,0,-0.35277776,115.97563,119.14646)"
       clip-path="url(#clipPath159)" />
    <path
       id="path160"
       d="m 0,0 h 0.144 0.012 0.145 c 1.183,-0.082 1.879,-1.039 1.879,-2.243 0,-0.586 -0.161,-1.25 -0.551,-1.882 -0.75,-1.25 -1.973,-1.934 -3.035,-1.934 -0.828,0 -1.536,0.406 -1.875,1.234 -0.106,0.325 -0.161,0.633 -0.161,0.977 0,1.769 1.602,3.73 3.442,3.848"
       style="fill:#9e2a2b;fill-opacity:1;fill-rule:nonzero;stroke:none"
       transform="matrix(0.35277776,0,0,-0.35277776,117.06575,118.08107)"
       clip-path="url(#clipPath161)" />
  </g>
</svg>
