<?xml version="1.0" encoding="UTF-8" standalone="no"?>
<!-- Created with Inkscape (http://www.inkscape.org/) -->

<svg
   width="24.615419mm"
   height="13.949891mm"
   viewBox="0 0 24.615419 13.949891"
   version="1.1"
   id="svg1"
   inkscape:version="1.3.2 (091e20ef0f, 2023-11-25, custom)"
   sodipodi:docname="insertion.svg"
   xmlns:inkscape="http://www.inkscape.org/namespaces/inkscape"
   xmlns:sodipodi="http://sodipodi.sourceforge.net/DTD/sodipodi-0.dtd"
   xmlns="http://www.w3.org/2000/svg"
   xmlns:svg="http://www.w3.org/2000/svg">
  <sodipodi:namedview
     id="namedview1"
     pagecolor="#505050"
     bordercolor="#ffffff"
     borderopacity="1"
     inkscape:showpageshadow="0"
     inkscape:pageopacity="0"
     inkscape:pagecheckerboard="1"
     inkscape:deskcolor="#d1d1d1"
     inkscape:document-units="mm"
     inkscape:zoom="1.8243651"
     inkscape:cx="48.784095"
     inkscape:cy="129.90821"
     inkscape:window-width="956"
     inkscape:window-height="1049"
     inkscape:window-x="960"
     inkscape:window-y="0"
     inkscape:window-maximized="1"
     inkscape:current-layer="layer1" />
  <defs
     id="defs1">
    <clipPath
       clipPathUnits="userSpaceOnUse"
       id="clipPath11">
      <path
         d="M 0,56.806 H 534.167 V 0 H 0 Z"
         transform="translate(-112.6719,-55.616801)"
         id="path11" />
    </clipPath>
    <clipPath
       clipPathUnits="userSpaceOnUse"
       id="clipPath13">
      <path
         d="M 0,56.806 H 534.167 V 0 H 0 Z"
         transform="translate(-127.98891,-47.230801)"
         id="path13" />
    </clipPath>
    <clipPath
       clipPathUnits="userSpaceOnUse"
       id="clipPath15">
      <path
         d="M 0,56.806 H 534.167 V 0 H 0 Z"
         transform="translate(-127.6179,-35.483801)"
         id="path15" />
    </clipPath>
    <clipPath
       clipPathUnits="userSpaceOnUse"
       id="clipPath17">
      <path
         d="M 0,56.806 H 534.167 V 0 H 0 Z"
         transform="translate(-137.53911,-39.331801)"
         id="path17" />
    </clipPath>
    <clipPath
       clipPathUnits="userSpaceOnUse"
       id="clipPath19">
      <path
         d="M 0,56.806 H 534.167 V 0 H 0 Z"
         transform="translate(-140.62491,-42.351801)"
         id="path19" />
    </clipPath>
    <clipPath
       clipPathUnits="userSpaceOnUse"
       id="clipPath21">
      <path
         d="M 0,56.806 H 534.167 V 0 H 0 Z"
         transform="translate(-146.59401,-44.983801)"
         id="path21" />
    </clipPath>
    <clipPath
       clipPathUnits="userSpaceOnUse"
       id="clipPath23">
      <path
         d="M 0,56.806 H 534.167 V 0 H 0 Z"
         transform="translate(-140.62491,-42.351801)"
         id="path23" />
    </clipPath>
    <clipPath
       clipPathUnits="userSpaceOnUse"
       id="clipPath25">
      <path
         d="M 0,56.806 H 534.167 V 0 H 0 Z"
         transform="translate(-137.53911,-39.331801)"
         id="path25" />
    </clipPath>
    <clipPath
       clipPathUnits="userSpaceOnUse"
       id="clipPath27">
      <path
         d="M 0,56.806 H 534.167 V 0 H 0 Z"
         id="path27" />
    </clipPath>
    <clipPath
       clipPathUnits="userSpaceOnUse"
       id="clipPath29">
      <path
         d="M 0,56.806 H 534.167 V 0 H 0 Z"
         transform="translate(-149.9179,-48.003801)"
         id="path29" />
    </clipPath>
    <clipPath
       clipPathUnits="userSpaceOnUse"
       id="clipPath31">
      <path
         d="M 0,56.806 H 534.167 V 0 H 0 Z"
         transform="translate(-155.5822,-39.331801)"
         id="path31" />
    </clipPath>
    <clipPath
       clipPathUnits="userSpaceOnUse"
       id="clipPath33">
      <path
         d="M 0,56.806 H 534.167 V 0 H 0 Z"
         transform="translate(-158.6719,-42.351801)"
         id="path33" />
    </clipPath>
    <clipPath
       clipPathUnits="userSpaceOnUse"
       id="clipPath35">
      <path
         d="M 0,56.806 H 534.167 V 0 H 0 Z"
         transform="translate(-164.63721,-44.983801)"
         id="path35" />
    </clipPath>
    <clipPath
       clipPathUnits="userSpaceOnUse"
       id="clipPath37">
      <path
         d="M 0,56.806 H 534.167 V 0 H 0 Z"
         transform="translate(-158.6719,-42.351801)"
         id="path37" />
    </clipPath>
    <clipPath
       clipPathUnits="userSpaceOnUse"
       id="clipPath39">
      <path
         d="M 0,56.806 H 534.167 V 0 H 0 Z"
         transform="translate(-155.5822,-39.331801)"
         id="path39" />
    </clipPath>
    <clipPath
       clipPathUnits="userSpaceOnUse"
       id="clipPath41">
      <path
         d="M 0,56.806 H 534.167 V 0 H 0 Z"
         id="path41" />
    </clipPath>
    <clipPath
       clipPathUnits="userSpaceOnUse"
       id="clipPath43">
      <path
         d="M 0,56.806 H 534.167 V 0 H 0 Z"
         transform="translate(-167.96091,-48.003801)"
         id="path43" />
    </clipPath>
    <clipPath
       clipPathUnits="userSpaceOnUse"
       id="clipPath45">
      <path
         d="M 0,56.806 H 534.167 V 0 H 0 Z"
         transform="matrix(1,0,0,-1,-114.61911,2.3872001)"
         id="path45" />
    </clipPath>
    <clipPath
       clipPathUnits="userSpaceOnUse"
       id="clipPath47">
      <path
         d="M 0,56.806 H 534.167 V 0 H 0 Z"
         transform="translate(-147.96141,-51.713201)"
         id="path47" />
    </clipPath>
    <clipPath
       clipPathUnits="userSpaceOnUse"
       id="clipPath49">
      <path
         d="M 0,56.806 H 534.167 V 0 H 0 Z"
         transform="translate(-149.4024,-51.713201)"
         id="path49" />
    </clipPath>
    <clipPath
       clipPathUnits="userSpaceOnUse"
       id="clipPath51">
      <path
         d="M 0,56.806 H 534.167 V 0 H 0 Z"
         transform="translate(-159.1719,-51.717201)"
         id="path51" />
    </clipPath>
    <clipPath
       clipPathUnits="userSpaceOnUse"
       id="clipPath53">
      <path
         d="M 0,56.806 H 534.167 V 0 H 0 Z"
         transform="translate(-160.6129,-51.714701)"
         id="path53" />
    </clipPath>
  </defs>
  <g
     inkscape:label="Layer 1"
     inkscape:groupmode="layer"
     id="layer1"
     transform="translate(-82.814582,-75.935417)">
    <path
       id="path1"
       d="M 83.034856,78.626759 H 107.23717"
       style="fill:none;stroke:#000000;stroke-width:0.183444;stroke-linecap:butt;stroke-linejoin:miter;stroke-miterlimit:4;stroke-dasharray:none;stroke-opacity:1" />
    <path
       id="path2"
       d="M 83.034856,80.666167 H 107.23717"
       style="fill:none;stroke:#000000;stroke-width:0.183444;stroke-linecap:butt;stroke-linejoin:miter;stroke-miterlimit:4;stroke-dasharray:none;stroke-opacity:1" />
    <path
       id="path3"
       d="M 83.034856,82.705575 H 107.23717"
       style="fill:none;stroke:#000000;stroke-width:0.183444;stroke-linecap:butt;stroke-linejoin:miter;stroke-miterlimit:4;stroke-dasharray:none;stroke-opacity:1" />
    <path
       id="path4"
       d="M 83.034856,84.745336 H 107.23717"
       style="fill:none;stroke:#000000;stroke-width:0.183444;stroke-linecap:butt;stroke-linejoin:miter;stroke-miterlimit:4;stroke-dasharray:none;stroke-opacity:1" />
    <path
       id="path5"
       d="M 83.034856,86.784745 H 107.23717"
       style="fill:none;stroke:#000000;stroke-width:0.183444;stroke-linecap:butt;stroke-linejoin:miter;stroke-miterlimit:4;stroke-dasharray:none;stroke-opacity:1" />
    <path
       id="path6"
       d="m 107.23721,86.849232 h 0.16545 v -8.286044 h -0.16545 z"
       style="fill:#000000;fill-opacity:1;fill-rule:nonzero;stroke:none;stroke-width:0.352778" />
    <path
       id="path7"
       d="m 107.23721,78.563188 h 0.16545 v 8.286044 h -0.16545 z"
       style="fill:none;stroke:#000000;stroke-width:0.0546806;stroke-linecap:butt;stroke-linejoin:miter;stroke-miterlimit:4;stroke-dasharray:none;stroke-opacity:1" />
    <path
       id="path8"
       d="m 82.841922,86.849232 h 0.165452 v -8.286044 h -0.165452 z"
       style="fill:#000000;fill-opacity:1;fill-rule:nonzero;stroke:none;stroke-width:0.352778" />
    <path
       id="path9"
       d="m 82.841922,78.563188 h 0.165452 v 8.286044 h -0.165452 z"
       style="fill:none;stroke:#000000;stroke-width:0.0546806;stroke-linecap:butt;stroke-linejoin:miter;stroke-miterlimit:4;stroke-dasharray:none;stroke-opacity:1" />
    <path
       id="path10"
       d="m 0,0 c 0.028,0.016 0.055,0.016 0.098,0.016 0.16,0 0.348,-0.168 0.617,-0.582 1.09,-1.547 1.859,-4.246 1.859,-6.445 0,-0.164 -0.027,-0.297 -0.027,-0.465 -0.121,-2.614 -0.984,-4.762 -2.691,-6.793 l -0.461,-0.551 -0.16,-0.215 v -0.066 l 0.093,-0.5 0.149,-0.899 0.148,-0.832 c 0.203,-1.133 0.282,-1.715 0.282,-1.715 0,0 0.054,0 0.121,0.016 0.07,0 0.285,0.035 0.511,0.035 0.164,0 0.325,-0.035 0.407,-0.035 1.898,-0.301 3.367,-1.98 3.785,-4.344 0.078,-0.383 0.105,-0.8 0.105,-1.218 0,-2.247 -1.09,-4.395 -2.91,-5.411 -0.105,-0.082 -0.145,-0.097 -0.145,-0.097 v -0.02 c 0,0 0.079,-0.383 0.145,-0.812 l 0.203,-1.266 0.188,-1.016 c 0.109,-0.652 0.164,-1.117 0.164,-1.535 0,-0.363 -0.043,-0.699 -0.11,-1.082 -0.457,-2.312 -2.086,-3.695 -3.781,-3.695 -0.836,0 -1.699,0.332 -2.453,1.082 -0.672,0.699 -0.969,1.332 -0.969,2.164 0,1.465 0.957,2.5 1.953,2.5 0.348,0 0.7,-0.133 1.036,-0.383 0.566,-0.484 0.82,-1.219 0.82,-1.933 0,-1.098 -0.617,-2.18 -1.68,-2.262 h -0.109 l 0.082,-0.07 c 0.441,-0.231 0.887,-0.348 1.32,-0.348 1.09,0 2.113,0.684 2.731,1.863 0.351,0.668 0.539,1.449 0.539,2.231 0,0.3 -0.039,0.601 -0.094,0.933 0,0.035 -0.039,0.301 -0.094,0.551 -0.297,1.797 -0.473,2.848 -0.473,2.848 -0.027,0 -0.078,0 -0.121,-0.035 -0.132,-0.032 -0.418,-0.118 -0.539,-0.133 -0.293,-0.051 -0.578,-0.067 -0.847,-0.067 -2.641,0 -5.09,2.2 -5.938,5.446 -0.215,0.863 -0.336,1.73 -0.336,2.597 0,1.731 0.442,3.43 1.305,4.946 0.941,1.648 1.887,3.062 3.043,4.527 l 0.406,0.516 -0.098,0.617 -0.171,1.015 -0.231,1.297 c -0.066,0.485 -0.148,0.95 -0.16,1.051 -0.07,0.547 -0.109,1.082 -0.109,1.629 0,2.102 0.55,4.113 1.589,5.73 C -0.699,-0.715 -0.144,-0.051 0,0 M 0.824,-3.297 H 0.715 c -0.551,0 -1.266,-0.632 -1.75,-1.566 -0.5,-0.914 -0.754,-2.129 -0.754,-3.379 0,-0.332 0.012,-0.683 0.055,-1.031 0.039,-0.25 0.055,-0.418 0.16,-1.016 l 0.188,-1.051 c 0.054,-0.316 0.097,-0.566 0.097,-0.597 0.012,0 0.43,0.566 0.563,0.765 1.347,1.879 2.156,3.864 2.332,5.61 0.011,0.168 0.011,0.301 0.011,0.469 0,0.515 -0.054,1.015 -0.148,1.281 -0.105,0.265 -0.348,0.48 -0.645,0.515 m -2.035,-12.871 c -0.027,0.235 -0.066,0.418 -0.066,0.45 h -0.012 c -0.027,0 -0.609,-0.833 -1.012,-1.415 -0.687,-1.031 -1.414,-2.265 -1.71,-2.863 -0.567,-1.183 -0.848,-2.5 -0.848,-3.797 0,-0.847 0.133,-1.664 0.375,-2.449 0.73,-2.312 2.398,-3.762 4.219,-3.762 0.214,0 0.457,0.016 0.683,0.067 0.297,0.066 0.66,0.199 0.66,0.25 0,0 -0.027,0.168 -0.066,0.351 l -0.391,2.379 -0.308,1.782 -0.203,1.234 -0.215,1.199 c -0.11,0.715 -0.149,0.899 -0.149,0.899 0,0 0,0.015 -0.011,0.015 -0.082,0 -0.512,-0.265 -0.704,-0.433 -0.699,-0.598 -1.062,-1.547 -1.062,-2.481 0,-0.883 0.352,-1.766 1.023,-2.281 0.149,-0.117 0.204,-0.215 0.204,-0.332 v -0.082 c -0.028,-0.203 -0.122,-0.285 -0.258,-0.285 -0.055,0 -0.121,0.015 -0.203,0.066 -1.239,0.668 -2.071,2.25 -2.071,3.981 0,1.996 1.008,3.73 2.559,4.41 l 0.078,0.035 -0.133,0.832 -0.379,2.23 m 2.02,-5.558 c -0.106,0.015 -0.215,0.015 -0.297,0.015 H 0.418 0.352 l 0.055,-0.3 0.281,-1.633 0.176,-1.063 0.187,-1.051 0.379,-2.312 0.148,-0.883 c 0.055,-0.234 0.082,-0.433 0.094,-0.433 0.012,0 0.242,0.168 0.391,0.3 0.687,0.598 1.199,1.532 1.386,2.496 0.067,0.317 0.094,0.649 0.094,0.965 0,1.934 -1.156,3.68 -2.734,3.899"
       style="fill:#000000;fill-opacity:1;fill-rule:nonzero;stroke:none"
       transform="matrix(0.35277776,0,0,-0.35277776,86.176696,75.941061)"
       clip-path="url(#clipPath11)" />
    <path
       id="path12"
       d="M 0,0 H 0.254 C 0.468,0 0.754,0 0.82,-0.036 1.828,-0.184 2.636,-0.817 2.988,-1.7 3.109,-2 3.164,-2.317 3.164,-2.649 3.164,-3.465 2.8,-4.399 2.14,-5.098 1.683,-5.579 1.222,-5.879 0.511,-6.161 c -0.929,-0.367 -1.726,-1.015 -2.238,-1.8 v -0.016 c 0,0 0.043,0.016 0.07,0.066 0.512,0.516 1.196,0.817 1.817,0.817 0.512,0 0.875,-0.117 1.359,-0.449 0.297,-0.184 0.567,-0.266 0.821,-0.266 0.109,0 0.218,0 0.339,0.031 0.172,0.051 0.364,0.215 0.43,0.352 0.039,0.113 0.109,0.164 0.188,0.164 0.109,0 0.214,-0.098 0.214,-0.25 0,-0.117 -0.121,-0.531 -0.226,-0.817 -0.434,-1.062 -1.188,-1.73 -1.914,-1.73 -0.055,0 -0.094,0 -0.149,0.016 -0.187,0 -0.269,0.066 -0.511,0.269 -0.512,0.414 -1.157,0.633 -1.723,0.633 -0.242,0 -0.457,-0.035 -0.66,-0.137 -0.27,-0.113 -0.524,-0.312 -0.606,-0.465 -0.039,-0.117 -0.109,-0.148 -0.187,-0.148 -0.071,0 -0.137,0.031 -0.176,0.133 l -0.027,0.051 v 0.23 c 0,0.199 0.011,0.27 0.011,0.336 0.016,0.047 0.028,0.148 0.028,0.23 0.242,1.399 1.066,2.649 2.183,3.266 0.914,0.531 1.52,1.48 1.629,2.68 0.028,0.097 0.028,0.183 0.028,0.281 0,1.066 -0.649,1.801 -1.563,1.801 h -0.215 c -0.136,-0.02 -0.176,-0.02 -0.176,-0.051 0,0 0,-0.016 0.04,-0.051 0.312,-0.215 0.457,-0.633 0.457,-1.031 0,-0.516 -0.215,-1 -0.633,-1.199 -0.133,-0.051 -0.266,-0.067 -0.375,-0.067 -0.567,0 -1.039,0.598 -1.039,1.317 0,0.133 0,0.265 0.027,0.414 C -2.063,-0.786 -1.106,-0.153 0,0 M 0.414,-10.809 H 0.441 0.402 0.414 m 0,11.223 H 0.441 0.402 Z"
       style="fill:#000000;fill-opacity:1;fill-rule:nonzero;stroke:none"
       transform="matrix(0.35277776,0,0,-0.35277776,91.580194,78.899456)"
       clip-path="url(#clipPath13)" />
    <path
       id="path14"
       d="m 0,0 c 0.011,0.016 0.199,0.016 0.781,0.016 h 0.605 1.36 L 2.785,-0.035 C 2.855,-0.085 2.894,-0.168 2.894,-0.234 2.894,-0.332 2.855,-0.398 2.8,-0.468 2.785,-0.515 2.664,-0.648 2.585,-0.8 L 1.871,-1.816 0.957,-3.097 0.468,-3.781 -0.258,-4.812 -1.211,-6.16 c -0.164,-0.25 -0.34,-0.449 -0.34,-0.449 0,-0.035 0.121,-0.035 1.238,-0.035 h 1.227 v 1.082 c 0,1.102 0,1.117 0.015,1.133 0.028,0.051 0.149,0.234 0.617,0.914 l 0.188,0.25 0.191,0.25 0.282,0.449 0.296,0.383 0.149,0.234 c 0.055,0.102 0.133,0.117 0.203,0.117 0.078,0 0.148,-0.05 0.188,-0.132 0.011,-0.051 0.011,-0.082 0.011,-1.317 V -4.328 -6.644 H 3.39 c 0.313,0 0.324,0 0.367,-0.016 0.106,-0.05 0.161,-0.183 0.161,-0.332 0,-0.086 -0.016,-0.183 -0.067,-0.25 C 3.769,-7.328 3.757,-7.328 3.39,-7.328 H 3.054 V -7.609 C 3.07,-8.457 3.203,-8.792 3.73,-9.14 3.918,-9.257 3.957,-9.292 3.957,-9.457 3.957,-9.574 3.929,-9.625 3.863,-9.691 L 3.824,-9.707 H 0.148 l -0.043,0.016 c -0.078,0.066 -0.094,0.117 -0.094,0.234 0,0.165 0.016,0.2 0.215,0.317 0.527,0.348 0.66,0.683 0.66,1.531 v 0.281 h -1.547 c -0.285,-0.031 -0.511,-0.031 -0.699,-0.031 -0.851,0 -0.863,0.031 -0.879,0.031 -0.078,0.036 -0.105,0.133 -0.105,0.25 0,0.118 0,0.118 0.269,0.5 1.129,1.7 1.926,4.164 1.926,6.129 C -0.149,-0.152 -0.11,-0.05 0,0 M 0.808,-10.625 H 0.82 0.781 0.808 m 0,11.223 H 0.82 0.781 0.804"
       style="fill:#000000;fill-opacity:1;fill-rule:nonzero;stroke:none"
       transform="matrix(0.35277776,0,0,-0.35277776,91.449313,83.043536)"
       clip-path="url(#clipPath15)" />
    <path
       id="path16"
       d="M 0,0 V -20.234"
       style="fill:none;stroke:#000000;stroke-width:0.78;stroke-linecap:butt;stroke-linejoin:miter;stroke-miterlimit:4;stroke-dasharray:none;stroke-opacity:1"
       transform="matrix(0.35277776,0,0,-0.35277776,94.949292,81.686047)"
       clip-path="url(#clipPath17)" />
    <path
       id="path18"
       d="m 0,0 h 0.145 0.016 0.144 c 1.18,-0.082 1.875,-1.039 1.875,-2.243 0,-0.585 -0.156,-1.25 -0.551,-1.882 -0.746,-1.25 -1.968,-1.934 -3.031,-1.934 -0.828,0 -1.539,0.406 -1.879,1.234 -0.105,0.325 -0.156,0.633 -0.156,0.977 0,1.77 1.601,3.73 3.437,3.848"
       style="fill:#000000;fill-opacity:1;fill-rule:nonzero;stroke:none"
       transform="matrix(0.35277776,0,0,-0.35277776,96.037894,80.620659)"
       clip-path="url(#clipPath19)" />
    <path
       id="path20"
       d="M 0,0 V -22.996"
       style="fill:none;stroke:#000000;stroke-width:0.831;stroke-linecap:butt;stroke-linejoin:miter;stroke-miterlimit:4;stroke-dasharray:none;stroke-opacity:1"
       transform="matrix(0.35277776,0,0,-0.35277776,98.14366,79.692147)"
       clip-path="url(#clipPath21)" />
    <path
       id="path22"
       d="m 0,0 h 0.145 0.016 0.144 c 1.18,-0.082 1.875,-1.039 1.875,-2.243 0,-0.585 -0.156,-1.25 -0.551,-1.882 -0.746,-1.25 -1.968,-1.934 -3.031,-1.934 -0.828,0 -1.539,0.406 -1.879,1.234 -0.105,0.325 -0.156,0.633 -0.156,0.977 0,1.77 1.601,3.73 3.437,3.848"
       style="fill:#000000;fill-opacity:1;fill-rule:nonzero;stroke:none"
       transform="matrix(0.35277776,0,0,-0.35277776,96.037894,80.620659)"
       clip-path="url(#clipPath23)" />
    <path
       id="path24"
       d="M 0,0 V -19.801"
       style="fill:none;stroke:#000000;stroke-width:0.78;stroke-linecap:butt;stroke-linejoin:miter;stroke-miterlimit:4;stroke-dasharray:none;stroke-opacity:1"
       transform="matrix(0.35277776,0,0,-0.35277776,94.949292,81.686047)"
       clip-path="url(#clipPath25)" />
    <path
       id="path26"
       d="m 137.188,21.988 h 9.758 v -2.891 h -9.758 z"
       style="fill:#000000;fill-opacity:1;fill-rule:nonzero;stroke:none"
       transform="matrix(0.35277776,0,0,-0.35277776,46.428554,95.561432)"
       clip-path="url(#clipPath27)" />
    <path
       id="path28"
       d="m 0,0 h 0.145 0.012 0.144 c 1.184,-0.082 1.879,-1.039 1.879,-2.242 0,-0.586 -0.156,-1.25 -0.551,-1.883 -0.75,-1.25 -1.968,-1.934 -3.035,-1.934 -0.824,0 -1.535,0.407 -1.875,1.235 -0.105,0.324 -0.16,0.633 -0.16,0.976 0,1.77 1.602,3.731 3.441,3.848"
       style="fill:#000000;fill-opacity:1;fill-rule:nonzero;stroke:none"
       transform="matrix(0.35277776,0,0,-0.35277776,99.316256,78.626759)"
       clip-path="url(#clipPath29)" />
    <path
       id="path30"
       d="M 0,0 V -20.234"
       style="fill:none;stroke:#000000;stroke-width:0.78;stroke-linecap:butt;stroke-linejoin:miter;stroke-miterlimit:4;stroke-dasharray:none;stroke-opacity:1"
       transform="matrix(0.35277776,0,0,-0.35277776,101.3145,81.686047)"
       clip-path="url(#clipPath31)" />
    <path
       id="path32"
       d="m 0,0 h 0.145 0.012 0.144 c 1.18,-0.082 1.879,-1.039 1.879,-2.243 0,-0.585 -0.16,-1.25 -0.555,-1.882 -0.746,-1.25 -1.968,-1.934 -3.031,-1.934 -0.828,0 -1.535,0.406 -1.879,1.234 -0.105,0.325 -0.156,0.633 -0.156,0.977 0,1.77 1.601,3.73 3.441,3.848"
       style="fill:#000000;fill-opacity:1;fill-rule:nonzero;stroke:none"
       transform="matrix(0.35277776,0,0,-0.35277776,102.40447,80.620659)"
       clip-path="url(#clipPath33)" />
    <path
       id="path34"
       d="M 0,0 V -22.996"
       style="fill:none;stroke:#9e2a2b;stroke-width:0.831;stroke-linecap:butt;stroke-linejoin:miter;stroke-miterlimit:4;stroke-dasharray:none;stroke-opacity:1"
       transform="matrix(0.35277776,0,0,-0.35277776,104.5089,79.692147)"
       clip-path="url(#clipPath35)" />
    <path
       id="path36"
       d="m 0,0 h 0.145 0.012 0.144 c 1.18,-0.082 1.879,-1.039 1.879,-2.243 0,-0.585 -0.16,-1.25 -0.555,-1.882 -0.746,-1.25 -1.968,-1.934 -3.031,-1.934 -0.828,0 -1.535,0.406 -1.879,1.234 -0.105,0.325 -0.156,0.633 -0.156,0.977 0,1.77 1.601,3.73 3.441,3.848"
       style="fill:#9e2a2b;fill-opacity:1;fill-rule:nonzero;stroke:none"
       transform="matrix(0.35277776,0,0,-0.35277776,102.40447,80.620659)"
       clip-path="url(#clipPath37)" />
    <path
       id="path38"
       d="M 0,0 V -19.801"
       style="fill:none;stroke:#9e2a2b;stroke-width:0.78;stroke-linecap:butt;stroke-linejoin:miter;stroke-miterlimit:4;stroke-dasharray:none;stroke-opacity:1"
       transform="matrix(0.35277776,0,0,-0.35277776,101.3145,81.686047)"
       clip-path="url(#clipPath39)" />
    <path
       id="path40"
       d="m 155.231,21.988 h 9.758 v -2.891 h -9.758 z"
       style="fill:#9e2a2b;fill-opacity:1;fill-rule:nonzero;stroke:none"
       transform="matrix(0.35277776,0,0,-0.35277776,46.428554,95.561432)"
       clip-path="url(#clipPath41)" />
    <path
       id="path42"
       d="M 0,0 H 0.145 0.16 0.305 c 1.18,-0.082 1.875,-1.039 1.875,-2.242 0,-0.586 -0.156,-1.25 -0.551,-1.883 -0.75,-1.25 -1.969,-1.934 -3.031,-1.934 -0.828,0 -1.539,0.407 -1.879,1.235 -0.105,0.324 -0.156,0.633 -0.156,0.976 0,1.77 1.601,3.731 3.437,3.848"
       style="fill:#9e2a2b;fill-opacity:1;fill-rule:nonzero;stroke:none"
       transform="matrix(0.35277776,0,0,-0.35277776,105.68143,78.626759)"
       clip-path="url(#clipPath43)" />
    <path
       id="path46"
       d="M 0,0 H -11.754"
       style="fill:none;stroke:#9e2a2b;stroke-width:0.75;stroke-linecap:butt;stroke-linejoin:bevel;stroke-miterlimit:4;stroke-dasharray:none;stroke-opacity:1"
       transform="matrix(0.35277776,0,0,-0.35277776,98.626048,77.318165)"
       clip-path="url(#clipPath47)" />
    <path
       id="path48"
       d="M 0,0 -2.16,-1.246 V 1.25 Z"
       style="fill:#9e2a2b;fill-opacity:1;fill-rule:evenodd;stroke:none"
       transform="matrix(0.35277776,0,0,-0.35277776,99.1344,77.318165)"
       clip-path="url(#clipPath49)" />
    <path
       id="path50"
       d="M 0,0 2.16,1.246 V -1.25 Z"
       style="fill:#9e2a2b;fill-opacity:1;fill-rule:evenodd;stroke:none"
       transform="matrix(0.35277776,0,0,-0.35277776,102.58086,77.316754)"
       clip-path="url(#clipPath51)" />
    <path
       id="path52"
       d="M 0,0 H 11.758"
       style="fill:none;stroke:#9e2a2b;stroke-width:0.75;stroke-linecap:butt;stroke-linejoin:bevel;stroke-miterlimit:4;stroke-dasharray:none;stroke-opacity:1"
       transform="matrix(0.35277776,0,0,-0.35277776,103.08921,77.317635)"
       clip-path="url(#clipPath53)" />
  </g>
</svg>
