<?xml version="1.0" encoding="UTF-8" standalone="no"?>
<!-- Created with Inkscape (http://www.inkscape.org/) -->

<svg
   width="24.615774mm"
   height="19.57222mm"
   viewBox="0 0 24.615774 19.57222"
   version="1.1"
   id="svg1"
   inkscape:version="1.3.2 (091e20ef0f, 2023-11-25, custom)"
   sodipodi:docname="original.svg"
   xmlns:inkscape="http://www.inkscape.org/namespaces/inkscape"
   xmlns:sodipodi="http://sodipodi.sourceforge.net/DTD/sodipodi-0.dtd"
   xmlns="http://www.w3.org/2000/svg"
   xmlns:svg="http://www.w3.org/2000/svg">
  <sodipodi:namedview
     id="namedview1"
     pagecolor="#505050"
     bordercolor="#ffffff"
     borderopacity="1"
     inkscape:showpageshadow="0"
     inkscape:pageopacity="0"
     inkscape:pagecheckerboard="1"
     inkscape:deskcolor="#d1d1d1"
     inkscape:document-units="mm"
     inkscape:zoom="2.1849399"
     inkscape:cx="-43.479458"
     inkscape:cy="26.316514"
     inkscape:window-width="1920"
     inkscape:window-height="1080"
     inkscape:window-x="1920"
     inkscape:window-y="0"
     inkscape:window-maximized="1"
     inkscape:current-layer="layer1" />
  <defs
     id="defs1">
    <clipPath
       clipPathUnits="userSpaceOnUse"
       id="clipPath55">
      <path
         d="M 0,56.806 H 534.167 V 0 H 0 Z"
         transform="translate(-10.205001,-55.460301)"
         id="path55" />
    </clipPath>
    <clipPath
       clipPathUnits="userSpaceOnUse"
       id="clipPath57">
      <path
         d="M 0,56.806 H 534.167 V 0 H 0 Z"
         transform="translate(-1.2950001,-47.847301)"
         id="path57" />
    </clipPath>
    <clipPath
       clipPathUnits="userSpaceOnUse"
       id="clipPath59">
      <path
         d="M 0,56.806 H 534.167 V 0 H 0 Z"
         transform="translate(-1.2950001,-42.066301)"
         id="path59" />
    </clipPath>
    <clipPath
       clipPathUnits="userSpaceOnUse"
       id="clipPath61">
      <path
         d="M 0,56.806 H 534.167 V 0 H 0 Z"
         transform="translate(-1.2950001,-36.285301)"
         id="path61" />
    </clipPath>
    <clipPath
       clipPathUnits="userSpaceOnUse"
       id="clipPath63">
      <path
         d="M 0,56.806 H 534.167 V 0 H 0 Z"
         transform="translate(-1.2950001,-30.503301)"
         id="path63" />
    </clipPath>
    <clipPath
       clipPathUnits="userSpaceOnUse"
       id="clipPath65">
      <path
         d="M 0,56.806 H 534.167 V 0 H 0 Z"
         transform="translate(-1.2950001,-24.7223)"
         id="path65" />
    </clipPath>
    <clipPath
       clipPathUnits="userSpaceOnUse"
       id="clipPath67">
      <path
         d="M 0,56.806 H 534.167 V 0 H 0 Z"
         id="path67" />
    </clipPath>
    <clipPath
       clipPathUnits="userSpaceOnUse"
       id="clipPath69">
      <path
         d="M 0,56.806 H 534.167 V 0 H 0 Z"
         id="path69" />
    </clipPath>
    <clipPath
       clipPathUnits="userSpaceOnUse"
       id="clipPath71">
      <path
         d="M 0,56.806 H 534.167 V 0 H 0 Z"
         transform="translate(-25.518001,-47.074301)"
         id="path71" />
    </clipPath>
    <clipPath
       clipPathUnits="userSpaceOnUse"
       id="clipPath73">
      <path
         d="M 0,56.806 H 534.167 V 0 H 0 Z"
         transform="translate(-25.147,-35.328301)"
         id="path73" />
    </clipPath>
    <clipPath
       clipPathUnits="userSpaceOnUse"
       id="clipPath75">
      <path
         d="M 0,56.806 H 534.167 V 0 H 0 Z"
         transform="translate(-35.068501,-39.175301)"
         id="path75" />
    </clipPath>
    <clipPath
       clipPathUnits="userSpaceOnUse"
       id="clipPath77">
      <path
         d="M 0,56.806 H 534.167 V 0 H 0 Z"
         transform="translate(-38.159001,-42.195301)"
         id="path77" />
    </clipPath>
    <clipPath
       clipPathUnits="userSpaceOnUse"
       id="clipPath79">
      <path
         d="M 0,56.806 H 534.167 V 0 H 0 Z"
         transform="translate(-53.084101,-45.175301)"
         id="path79" />
    </clipPath>
    <clipPath
       clipPathUnits="userSpaceOnUse"
       id="clipPath81">
      <path
         d="M 0,56.806 H 534.167 V 0 H 0 Z"
         transform="translate(-56.174002,-48.195301)"
         id="path81" />
    </clipPath>
    <clipPath
       clipPathUnits="userSpaceOnUse"
       id="clipPath83">
      <path
         d="M 0,56.806 H 534.167 V 0 H 0 Z"
         transform="matrix(1,0,0,-1,-15.240201,2.5195001)"
         id="path83" />
    </clipPath>
    <clipPath
       clipPathUnits="userSpaceOnUse"
       id="clipPath85">
      <path
         d="M 0,56.806 H 534.167 V 0 H 0 Z"
         id="path85" />
    </clipPath>
  </defs>
  <g
     inkscape:label="Layer 1"
     inkscape:groupmode="layer"
     id="layer1"
     transform="translate(-161.39584,-132.02708)">
    <path
       id="path54"
       d="m 0,0 c 0.028,0.02 0.055,0.02 0.094,0.02 0.16,0 0.352,-0.168 0.621,-0.582 1.09,-1.551 1.856,-4.246 1.856,-6.445 0,-0.168 -0.028,-0.301 -0.028,-0.465 -0.121,-2.613 -0.98,-4.762 -2.691,-6.793 l -0.457,-0.551 -0.164,-0.215 v -0.066 l 0.098,-0.5 0.144,-0.899 0.149,-0.836 c 0.203,-1.128 0.285,-1.714 0.285,-1.714 0,0 0.054,0 0.121,0.019 0.066,0 0.281,0.031 0.511,0.031 0.161,0 0.325,-0.031 0.403,-0.031 1.898,-0.301 3.367,-1.984 3.785,-4.348 0.082,-0.382 0.109,-0.796 0.109,-1.214 0,-2.246 -1.093,-4.395 -2.91,-5.411 -0.109,-0.082 -0.148,-0.101 -0.148,-0.101 v -0.016 c 0,0 0.082,-0.383 0.148,-0.816 l 0.203,-1.266 0.188,-1.015 c 0.105,-0.649 0.16,-1.114 0.16,-1.532 0,-0.367 -0.039,-0.699 -0.105,-1.082 -0.461,-2.312 -2.09,-3.695 -3.786,-3.695 -0.836,0 -1.695,0.332 -2.453,1.082 -0.672,0.699 -0.969,1.332 -0.969,2.164 0,1.465 0.958,2.496 1.954,2.496 0.351,0 0.699,-0.133 1.039,-0.383 0.562,-0.48 0.82,-1.214 0.82,-1.929 0,-1.098 -0.621,-2.184 -1.684,-2.266 h -0.109 l 0.082,-0.066 c 0.445,-0.235 0.891,-0.348 1.32,-0.348 1.09,0 2.114,0.68 2.735,1.863 0.347,0.664 0.539,1.45 0.539,2.231 0,0.301 -0.043,0.601 -0.094,0.933 0,0.032 -0.043,0.301 -0.098,0.547 -0.293,1.801 -0.468,2.848 -0.468,2.848 -0.028,0 -0.082,0 -0.121,-0.031 -0.137,-0.036 -0.418,-0.118 -0.54,-0.133 -0.296,-0.051 -0.578,-0.067 -0.847,-0.067 -2.641,0 -5.094,2.196 -5.942,5.442 -0.214,0.867 -0.336,1.734 -0.336,2.598 0,1.734 0.446,3.429 1.309,4.945 0.941,1.648 1.883,3.062 3.043,4.531 l 0.402,0.516 -0.093,0.613 -0.176,1.016 -0.227,1.3 c -0.07,0.481 -0.148,0.95 -0.164,1.047 -0.066,0.551 -0.105,1.082 -0.105,1.633 0,2.098 0.551,4.113 1.586,5.727 C -0.699,-0.714 -0.148,-0.046 0,0 M 0.821,-3.292 H 0.715 c -0.554,0 -1.265,-0.633 -1.754,-1.567 -0.496,-0.918 -0.754,-2.133 -0.754,-3.379 0,-0.336 0.016,-0.683 0.055,-1.035 0.043,-0.25 0.055,-0.414 0.164,-1.016 l 0.188,-1.046 c 0.054,-0.317 0.093,-0.567 0.093,-0.602 0.012,0 0.43,0.566 0.567,0.766 1.344,1.882 2.152,3.863 2.328,5.613 0.016,0.164 0.016,0.301 0.016,0.465 0,0.515 -0.055,1.015 -0.149,1.281 -0.109,0.27 -0.351,0.484 -0.648,0.52 m -2.032,-12.872 c -0.027,0.231 -0.07,0.414 -0.07,0.45 h -0.012 c -0.027,0 -0.605,-0.832 -1.011,-1.414 -0.684,-1.036 -1.414,-2.266 -1.707,-2.868 -0.567,-1.179 -0.852,-2.496 -0.852,-3.793 0,-0.851 0.137,-1.668 0.379,-2.449 0.727,-2.312 2.398,-3.762 4.215,-3.762 0.215,0 0.457,0.016 0.687,0.067 0.297,0.066 0.661,0.199 0.661,0.25 0,0 -0.028,0.164 -0.071,0.348 l -0.39,2.382 -0.309,1.782 -0.203,1.23 -0.215,1.199 c -0.105,0.715 -0.148,0.899 -0.148,0.899 0,0 0,0.019 -0.012,0.019 -0.082,0 -0.512,-0.269 -0.699,-0.433 -0.703,-0.602 -1.067,-1.551 -1.067,-2.481 0,-0.883 0.352,-1.765 1.024,-2.281 0.148,-0.117 0.203,-0.219 0.203,-0.332 v -0.086 c -0.028,-0.199 -0.121,-0.281 -0.254,-0.281 -0.055,0 -0.121,0.015 -0.203,0.066 -1.239,0.664 -2.074,2.246 -2.074,3.977 0,2 1.011,3.73 2.558,4.414 l 0.082,0.035 -0.137,0.832 -0.375,2.23 m 2.02,-5.562 C 0.7,-21.71 0.594,-21.71 0.512,-21.71 H 0.418 0.352 l 0.051,-0.297 0.285,-1.633 0.176,-1.067 0.187,-1.046 0.375,-2.317 0.149,-0.883 c 0.054,-0.23 0.082,-0.429 0.093,-0.429 0.016,0 0.243,0.164 0.391,0.297 0.687,0.601 1.199,1.531 1.387,2.5 0.07,0.316 0.097,0.648 0.097,0.964 0,1.93 -1.16,3.68 -2.734,3.895"
       style="fill:#000000;fill-opacity:1;fill-rule:nonzero;stroke:none"
       transform="matrix(0.35277776,0,0,-0.35277776,164.7594,132.03414)"
       clip-path="url(#clipPath55)" />
    <path
       id="path56"
       d="M 0,0 H 68.606"
       style="fill:none;stroke:#000000;stroke-width:0.52;stroke-linecap:butt;stroke-linejoin:miter;stroke-miterlimit:4;stroke-dasharray:none;stroke-opacity:1"
       transform="matrix(0.35277776,0,0,-0.35277776,161.61615,134.71984)"
       clip-path="url(#clipPath57)" />
    <path
       id="path58"
       d="M 0,0 H 68.606"
       style="fill:none;stroke:#000000;stroke-width:0.52;stroke-linecap:butt;stroke-linejoin:miter;stroke-miterlimit:4;stroke-dasharray:none;stroke-opacity:1"
       transform="matrix(0.35277776,0,0,-0.35277776,161.61615,136.75925)"
       clip-path="url(#clipPath59)" />
    <path
       id="path60"
       d="M 0,0 H 68.606"
       style="fill:none;stroke:#000000;stroke-width:0.52;stroke-linecap:butt;stroke-linejoin:miter;stroke-miterlimit:4;stroke-dasharray:none;stroke-opacity:1"
       transform="matrix(0.35277776,0,0,-0.35277776,161.61615,138.79866)"
       clip-path="url(#clipPath61)" />
    <path
       id="path62"
       d="M 0,0 H 68.606"
       style="fill:none;stroke:#000000;stroke-width:0.52;stroke-linecap:butt;stroke-linejoin:miter;stroke-miterlimit:4;stroke-dasharray:none;stroke-opacity:1"
       transform="matrix(0.35277776,0,0,-0.35277776,161.61615,140.83842)"
       clip-path="url(#clipPath63)" />
    <path
       id="path64"
       d="M 0,0 H 68.606"
       style="fill:none;stroke:#000000;stroke-width:0.52;stroke-linecap:butt;stroke-linejoin:miter;stroke-miterlimit:4;stroke-dasharray:none;stroke-opacity:1"
       transform="matrix(0.35277776,0,0,-0.35277776,161.61615,142.87783)"
       clip-path="url(#clipPath65)" />
    <path
       id="path66"
       d="M 69.901,48.031 H 70.37 V 24.543 h -0.469 z"
       style="fill:#000000;fill-opacity:1;fill-rule:nonzero;stroke:#000000;stroke-width:0.155;stroke-linecap:butt;stroke-linejoin:miter;stroke-miterlimit:4;stroke-dasharray:none;stroke-opacity:1"
       transform="matrix(0.35277776,0,0,-0.35277776,161.1593,151.5993)"
       clip-path="url(#clipPath67)" />
    <path
       id="path68"
       d="M 0.748,48.031 H 1.217 V 24.543 H 0.748 Z"
       style="fill:none;stroke:#000000;stroke-width:0.155;stroke-linecap:butt;stroke-linejoin:miter;stroke-miterlimit:4;stroke-dasharray:none;stroke-opacity:1"
       transform="matrix(0.35277776,0,0,-0.35277776,161.1593,151.5993)"
       clip-path="url(#clipPath69)" />
    <path
       id="path70"
       d="M 0,0 H 0.258 C 0.473,0 0.754,0 0.82,-0.032 1.832,-0.184 2.641,-0.817 2.988,-1.699 3.109,-1.996 3.164,-2.313 3.164,-2.645 3.164,-3.461 2.801,-4.395 2.141,-5.094 1.683,-5.578 1.226,-5.875 0.512,-6.16 -0.418,-6.528 -1.211,-7.176 -1.723,-7.957 v -0.016 c 0,0 0.039,0.016 0.067,0.067 0.511,0.515 1.199,0.812 1.816,0.812 0.512,0 0.875,-0.113 1.363,-0.449 0.293,-0.184 0.563,-0.266 0.821,-0.266 0.105,0 0.215,0 0.336,0.035 0.175,0.047 0.363,0.215 0.429,0.348 0.043,0.117 0.11,0.168 0.192,0.168 0.105,0 0.215,-0.102 0.215,-0.25 0,-0.117 -0.122,-0.531 -0.231,-0.816 -0.43,-1.067 -1.184,-1.731 -1.91,-1.731 -0.055,0 -0.094,0 -0.149,0.016 -0.191,0 -0.269,0.066 -0.511,0.265 -0.512,0.418 -1.16,0.633 -1.727,0.633 -0.242,0 -0.457,-0.031 -0.656,-0.133 -0.27,-0.117 -0.527,-0.316 -0.609,-0.465 -0.04,-0.117 -0.106,-0.152 -0.188,-0.152 -0.066,0 -0.133,0.035 -0.176,0.137 l -0.027,0.047 v 0.234 c 0,0.199 0.016,0.266 0.016,0.332 0.011,0.051 0.027,0.152 0.027,0.235 0.242,1.398 1.062,2.648 2.18,3.261 0.918,0.535 1.523,1.485 1.628,2.684 0.028,0.097 0.028,0.179 0.028,0.281 0,1.066 -0.645,1.797 -1.563,1.797 h -0.215 c -0.132,-0.016 -0.175,-0.016 -0.175,-0.047 0,0 0,-0.019 0.043,-0.051 0.308,-0.218 0.457,-0.633 0.457,-1.035 0,-0.516 -0.215,-0.996 -0.633,-1.195 -0.137,-0.051 -0.27,-0.067 -0.379,-0.067 -0.563,0 -1.035,0.598 -1.035,1.313 0,0.133 0,0.266 0.027,0.418 C -2.059,-0.782 -1.106,-0.149 0,0 M 0.418,-10.805 H 0.445 0.402 0.418 m 0,11.223 H 0.445 0.402 Z"
       style="fill:#000000;fill-opacity:1;fill-rule:nonzero;stroke:none"
       transform="matrix(0.35277776,0,0,-0.35277776,170.16148,134.99254)"
       clip-path="url(#clipPath71)" />
    <path
       id="path72"
       d="m 0,0 c 0.015,0.019 0.203,0.019 0.781,0.019 h 0.606 1.359 l 0.043,-0.051 c 0.066,-0.05 0.105,-0.132 0.105,-0.199 0,-0.101 -0.039,-0.168 -0.093,-0.234 C 2.789,-0.516 2.668,-0.649 2.586,-0.797 L 1.871,-1.813 0.957,-3.094 0.472,-3.778 -0.254,-4.809 -1.211,-6.16 c -0.16,-0.25 -0.336,-0.45 -0.336,-0.45 0,-0.031 0.121,-0.031 1.238,-0.031 h 1.227 v 1.082 c 0,1.098 0,1.113 0.012,1.133 0.027,0.047 0.148,0.23 0.621,0.914 l 0.375,0.5 0.285,0.449 0.293,0.383 0.148,0.234 c 0.055,0.098 0.137,0.118 0.203,0.118 0.082,0 0.149,-0.051 0.188,-0.137 0.015,-0.047 0.015,-0.082 0.015,-1.313 v -1.05 -2.313 h 0.336 c 0.309,0 0.325,0 0.364,-0.019 0.109,-0.047 0.16,-0.18 0.16,-0.333 0,-0.082 -0.012,-0.183 -0.067,-0.25 C 3.769,-7.325 3.758,-7.325 3.394,-7.325 H 3.058 V -7.606 C 3.07,-8.457 3.207,-8.789 3.73,-9.141 3.918,-9.254 3.961,-9.289 3.961,-9.457 3.961,-9.571 3.933,-9.621 3.867,-9.688 L 3.824,-9.707 H 0.148 l -0.039,0.019 c -0.082,0.067 -0.094,0.117 -0.094,0.231 0,0.168 0.012,0.203 0.215,0.316 0.524,0.352 0.66,0.684 0.66,1.535 v 0.281 h -1.55 c -0.282,-0.035 -0.512,-0.035 -0.7,-0.035 -0.847,0 -0.863,0.035 -0.875,0.035 -0.082,0.036 -0.109,0.133 -0.109,0.25 0,0.118 0,0.118 0.27,0.5 1.132,1.7 1.925,4.161 1.925,6.125 0,0.301 0.043,0.403 0.149,0.45 M 0.808,-10.621 H 0.82 0.781 0.808 m 0,11.222 H 0.82 0.781 Z"
       style="fill:#000000;fill-opacity:1;fill-rule:nonzero;stroke:none"
       transform="matrix(0.35277776,0,0,-0.35277776,170.0306,139.13627)"
       clip-path="url(#clipPath73)" />
    <path
       id="path74"
       d="M 0,0 V -20.234"
       style="fill:none;stroke:#000000;stroke-width:0.78;stroke-linecap:butt;stroke-linejoin:miter;stroke-miterlimit:4;stroke-dasharray:none;stroke-opacity:1"
       transform="matrix(0.35277776,0,0,-0.35277776,173.53069,137.77913)"
       clip-path="url(#clipPath75)" />
    <path
       id="path76"
       d="M 0,0 H 0.144 0.156 0.3 c 1.184,-0.082 1.879,-1.039 1.879,-2.238 0,-0.586 -0.16,-1.25 -0.551,-1.883 -0.75,-1.25 -1.972,-1.934 -3.035,-1.934 -0.828,0 -1.535,0.406 -1.875,1.235 -0.105,0.324 -0.16,0.632 -0.16,0.972 0,1.77 1.602,3.735 3.442,3.848"
       style="fill:#000000;fill-opacity:1;fill-rule:nonzero;stroke:none"
       transform="matrix(0.35277776,0,0,-0.35277776,174.62095,136.71374)"
       clip-path="url(#clipPath77)" />
    <path
       id="path78"
       d="M 0,0 V -20.234"
       style="fill:none;stroke:#000000;stroke-width:0.78;stroke-linecap:butt;stroke-linejoin:miter;stroke-miterlimit:4;stroke-dasharray:none;stroke-opacity:1"
       transform="matrix(0.35277776,0,0,-0.35277776,179.88619,135.66246)"
       clip-path="url(#clipPath79)" />
    <path
       id="path80"
       d="m 0,0 h 0.145 0.011 0.145 c 1.18,-0.082 1.879,-1.039 1.879,-2.238 0,-0.586 -0.16,-1.25 -0.555,-1.883 -0.746,-1.25 -1.969,-1.934 -3.031,-1.934 -0.828,0 -1.535,0.406 -1.879,1.235 -0.105,0.324 -0.156,0.632 -0.156,0.972 0,1.77 1.601,3.735 3.441,3.848"
       style="fill:#000000;fill-opacity:1;fill-rule:nonzero;stroke:none"
       transform="matrix(0.35277776,0,0,-0.35277776,180.97624,134.59707)"
       clip-path="url(#clipPath81)" />
    <path
       id="path82"
       d="m 0.48050313,-3.1986094 c 0,-0.5449218 0.13183593,-1.0722656 0.3984375,-1.5820312 0.27246097,-0.515625 0.65624997,-0.9052735 1.14843747,-1.171875 0.4980469,-0.272461 1.0546875,-0.4101563 1.6640625,-0.4101563 0.9375,0 1.7050782,0.3046875 2.3085938,0.9140625 0.6005859,0.609375 0.9023437,1.3828125 0.9023437,2.3203125 0,0.9375 -0.3046875,1.7197266 -0.9140625,2.34375003 C 5.3848,-0.16638281 4.6230813,0.14123438 3.7031594,0.14123438 c -0.5712891,0 -1.1191406,-0.12890625 -1.640625,-0.38671875 C 1.5469094,-0.50329687 1.1514016,-0.88122656 0.87894063,-1.3822031 0.61233906,-1.88025 0.48050313,-2.4866953 0.48050313,-3.1986094 Z m 1.68749997,0.082031 c 0,0.618164 0.1435547,1.0898437 0.4335938,1.4179687 0.2958984,0.328125 0.6591797,0.4921875 1.0898437,0.4921875 0.4277344,0 0.788086,-0.1640625 1.078125,-0.4921875 0.2958985,-0.328125 0.4453125,-0.8027343 0.4453125,-1.4296875 0,-0.609375 -0.149414,-1.078125 -0.4453125,-1.40625 -0.290039,-0.328125 -0.6503906,-0.4921875 -1.078125,-0.4921875 -0.430664,0 -0.7939453,0.1640625 -1.0898437,0.4921875 -0.2900391,0.328125 -0.4335938,0.8027344 -0.4335938,1.4179688 z M 9.7705422,6.09375e-4 H 8.1299172 V -6.2220469 h 1.5234375 v 0.8789063 c 0.2636719,-0.413086 0.4980473,-0.6855469 0.7031253,-0.8203125 0.210937,-0.131836 0.448242,-0.1992188 0.714843,-0.1992188 0.375,0 0.738282,0.1025391 1.089844,0.3046875 l -0.515625,1.4414063 c -0.27539,-0.178711 -0.533203,-0.2695313 -0.773437,-0.2695313 -0.228516,0 -0.421875,0.064453 -0.585938,0.1875 -0.158203,0.1259766 -0.28125,0.3574219 -0.3749998,0.6914063 -0.09375,0.328125 -0.140625,1.0253906 -0.140625,2.0859375 z M 12.867222,-7.0657969 v -1.5234375 h 1.640625 v 1.5234375 z m 0,7.066406275 V -6.2220469 h 1.640625 V 6.09375e-4 Z m 3.18457,0.410156255 1.875,0.234375 c 0.0293,0.21679687 0.105469,0.36621097 0.222656,0.44531247 0.155274,0.1171875 0.401368,0.1757813 0.738282,0.1757813 0.427734,0 0.75,-0.064453 0.960937,-0.1875 0.146485,-0.0878907 0.257813,-0.22851565 0.328125,-0.42187502 0.05274,-0.13476563 0.08203,-0.38671875 0.08203,-0.76171875 V -1.0072031 c -0.492187,0.6738281 -1.113281,1.007812475 -1.863281,1.007812475 -0.83789,0 -1.5,-0.354492185 -1.992187,-1.066406275 -0.383789,-0.5537109 -0.574219,-1.2480468 -0.574219,-2.0859375 0,-1.0371093 0.249023,-1.8310547 0.75,-2.3789062 0.506836,-0.553711 1.130859,-0.8320313 1.875,-0.8320313 0.773437,0 1.40918,0.3369141 1.910156,1.0078125 v -0.8671875 h 1.535156 v 5.57812503 c 0,0.74121093 -0.06445,1.29199218 -0.1875,1.65234377 -0.117187,0.3662109 -0.287109,0.6503906 -0.503906,0.8554687 -0.219726,0.2109375 -0.512695,0.375 -0.878906,0.4921875 -0.360352,0.1171875 -0.820313,0.1757813 -1.382813,0.1757813 -1.054687,0 -1.804687,-0.1845703 -2.25,-0.5507813 -0.439453,-0.3603515 -0.65625,-0.8173828 -0.65625,-1.37109372 0,-0.0556641 0.0029,-0.12304688 0.01172,-0.19921875 z m 1.464844,-3.65625003 c 0,0.6650391 0.128906,1.1484375 0.386719,1.453125 0.257812,0.3046875 0.574218,0.4570313 0.949218,0.4570313 0.398438,0 0.732422,-0.1552735 1.007813,-0.46875 0.28125,-0.3105469 0.421875,-0.7763672 0.421875,-1.3945313 0,-0.6474609 -0.134766,-1.1279297 -0.398438,-1.4414062 -0.266601,-0.3105469 -0.603515,-0.46875 -1.007812,-0.46875 -0.392578,0 -0.714844,0.1582031 -0.972656,0.46875 -0.257813,0.3046875 -0.386719,0.7705078 -0.386719,1.3945312 z m 6.017578,-3.8203125 v -1.5234375 h 1.640625 v 1.5234375 z m 0,7.066406275 V -6.2220469 h 1.640625 V 6.09375e-4 Z m 8.99707,0 H 30.878941 V -3.1751719 c 0,-0.6708984 -0.03516,-1.1044922 -0.105469,-1.3007812 -0.07031,-0.2021485 -0.18457,-0.3574219 -0.339844,-0.46875 -0.158203,-0.1083985 -0.348633,-0.1640625 -0.574219,-0.1640625 -0.28125,0 -0.536132,0.079102 -0.761718,0.234375 -0.228516,0.1582031 -0.383789,0.3632812 -0.46875,0.6210937 -0.08789,0.2578125 -0.128907,0.7353516 -0.128907,1.4296875 V 6.09375e-4 H 26.859409 V -6.2220469 h 1.523438 v 0.9140625 c 0.544922,-0.703125 1.230469,-1.0546875 2.050781,-1.0546875 0.366211,0 0.697266,0.067383 0.996094,0.1992188 0.304687,0.1259765 0.530273,0.290039 0.679687,0.4921875 0.155274,0.2050781 0.263672,0.4335937 0.328125,0.6914062 0.06152,0.2578125 0.09375,0.6298828 0.09375,1.1132813 z m 2.903321,-4.324218775 -1.5,-0.2695312 c 0.169922,-0.600586 0.459961,-1.0458985 0.867187,-1.3359375 0.413086,-0.2871094 1.022461,-0.4335938 1.828125,-0.4335938 0.732422,0 1.280274,0.087891 1.640625,0.2578125 0.357422,0.1728516 0.612305,0.3955078 0.761719,0.6679688 0.146484,0.2666015 0.222656,0.7558594 0.222656,1.4648437 l -0.02344,1.921875 c 0,0.5478516 0.02637,0.9550782 0.08203,1.21875003 0.05273,0.2578125 0.152344,0.53613281 0.292969,0.832031245 h -1.628907 c -0.04102,-0.108398435 -0.09082,-0.272460935 -0.152343,-0.492187495 -0.03223,-0.09375 -0.05273,-0.15527344 -0.05859,-0.1875 -0.28125,0.27539062 -0.583008,0.48046875 -0.902344,0.62109375 -0.322265,0.13183593 -0.665039,0.19921875 -1.03125,0.19921875 -0.641601,0 -1.145508,-0.16992188 -1.511719,-0.515625 -0.36914,-0.3515625 -0.550781,-0.79101558 -0.550781,-1.32421878 0,-0.3515625 0.08203,-0.6621093 0.246094,-0.9375 0.169922,-0.28125 0.404297,-0.4921875 0.703125,-0.6328125 0.304687,-0.1464843 0.741211,-0.2753906 1.3125,-0.3867187 0.773437,-0.1464844 1.306641,-0.2841797 1.605469,-0.4101563 v -0.1640625 c 0,-0.3105468 -0.0791,-0.5332031 -0.234375,-0.6679687 -0.158203,-0.140625 -0.454102,-0.2109375 -0.890625,-0.2109375 -0.290039,0 -0.515625,0.058594 -0.679688,0.1757812 -0.164062,0.1171875 -0.298828,0.3222657 -0.398437,0.609375 z m 2.203125,1.3359375 c -0.210938,0.070312 -0.547852,0.1582032 -1.007813,0.2578125 -0.454101,0.09375 -0.75,0.1875 -0.890625,0.28125 -0.219726,0.1494141 -0.328125,0.3398438 -0.328125,0.5742188 0,0.234375 0.08496,0.4394531 0.257813,0.609375 0.169922,0.1640625 0.389648,0.2460937 0.65625,0.2460937 0.295898,0 0.580078,-0.09668 0.855468,-0.2929687 0.19336,-0.1464844 0.322266,-0.3310547 0.386719,-0.5507813 0.04687,-0.140625 0.07031,-0.4042968 0.07031,-0.796875 z M 40.875034,6.09375e-4 V -8.5892344 h 1.640625 V 6.09375e-4 Z m 0,0"
       style="fill:#000000;fill-opacity:1;fill-rule:nonzero;stroke:none"
       aria-label="original"
       transform="matrix(0.35277776,0,0,0.35277776,166.5357,150.71048)"
       clip-path="url(#clipPath83)" />
    <path
       id="path84"
       d="M 0.748,48.013 H 1.217 V 24.525 H 0.748 Z"
       style="fill:#000000;fill-opacity:1;fill-rule:nonzero;stroke:none"
       transform="matrix(0.35277776,0,0,-0.35277776,161.1593,151.5993)"
       clip-path="url(#clipPath85)" />
  </g>
</svg>
