<?xml version="1.0" encoding="UTF-8" standalone="no"?>
<!-- Created with Inkscape (http://www.inkscape.org/) -->

<svg
   width="24.615774mm"
   height="13.949891mm"
   viewBox="0 0 24.615774 13.949891"
   version="1.1"
   id="svg1"
   inkscape:version="1.3.2 (091e20ef0f, 2023-11-25, custom)"
   sodipodi:docname="original.svg"
   xmlns:inkscape="http://www.inkscape.org/namespaces/inkscape"
   xmlns:sodipodi="http://sodipodi.sourceforge.net/DTD/sodipodi-0.dtd"
   xmlns="http://www.w3.org/2000/svg"
   xmlns:svg="http://www.w3.org/2000/svg">
  <sodipodi:namedview
     id="namedview1"
     pagecolor="#505050"
     bordercolor="#ffffff"
     borderopacity="1"
     inkscape:showpageshadow="0"
     inkscape:pageopacity="0"
     inkscape:pagecheckerboard="1"
     inkscape:deskcolor="#d1d1d1"
     inkscape:document-units="mm"
     inkscape:zoom="2.1849399"
     inkscape:cx="-43.479457"
     inkscape:cy="26.316513"
     inkscape:window-width="1920"
     inkscape:window-height="1080"
     inkscape:window-x="0"
     inkscape:window-y="0"
     inkscape:window-maximized="1"
     inkscape:current-layer="layer1"
     showgrid="false" />
  <defs
     id="defs1">
    <clipPath
       clipPathUnits="userSpaceOnUse"
       id="clipPath55">
      <path
         d="M 0,56.806 H 534.167 V 0 H 0 Z"
         transform="translate(-10.205001,-55.460301)"
         id="path55" />
    </clipPath>
    <clipPath
       clipPathUnits="userSpaceOnUse"
       id="clipPath57">
      <path
         d="M 0,56.806 H 534.167 V 0 H 0 Z"
         transform="translate(-1.2950001,-47.847301)"
         id="path57" />
    </clipPath>
    <clipPath
       clipPathUnits="userSpaceOnUse"
       id="clipPath59">
      <path
         d="M 0,56.806 H 534.167 V 0 H 0 Z"
         transform="translate(-1.2950001,-42.066301)"
         id="path59" />
    </clipPath>
    <clipPath
       clipPathUnits="userSpaceOnUse"
       id="clipPath61">
      <path
         d="M 0,56.806 H 534.167 V 0 H 0 Z"
         transform="translate(-1.2950001,-36.285301)"
         id="path61" />
    </clipPath>
    <clipPath
       clipPathUnits="userSpaceOnUse"
       id="clipPath63">
      <path
         d="M 0,56.806 H 534.167 V 0 H 0 Z"
         transform="translate(-1.2950001,-30.503301)"
         id="path63" />
    </clipPath>
    <clipPath
       clipPathUnits="userSpaceOnUse"
       id="clipPath65">
      <path
         d="M 0,56.806 H 534.167 V 0 H 0 Z"
         transform="translate(-1.2950001,-24.7223)"
         id="path65" />
    </clipPath>
    <clipPath
       clipPathUnits="userSpaceOnUse"
       id="clipPath67">
      <path
         d="M 0,56.806 H 534.167 V 0 H 0 Z"
         id="path67" />
    </clipPath>
    <clipPath
       clipPathUnits="userSpaceOnUse"
       id="clipPath69">
      <path
         d="M 0,56.806 H 534.167 V 0 H 0 Z"
         id="path69" />
    </clipPath>
    <clipPath
       clipPathUnits="userSpaceOnUse"
       id="clipPath71">
      <path
         d="M 0,56.806 H 534.167 V 0 H 0 Z"
         transform="translate(-25.518001,-47.074301)"
         id="path71" />
    </clipPath>
    <clipPath
       clipPathUnits="userSpaceOnUse"
       id="clipPath73">
      <path
         d="M 0,56.806 H 534.167 V 0 H 0 Z"
         transform="translate(-25.147,-35.328301)"
         id="path73" />
    </clipPath>
    <clipPath
       clipPathUnits="userSpaceOnUse"
       id="clipPath75">
      <path
         d="M 0,56.806 H 534.167 V 0 H 0 Z"
         transform="translate(-35.068501,-39.175301)"
         id="path75" />
    </clipPath>
    <clipPath
       clipPathUnits="userSpaceOnUse"
       id="clipPath77">
      <path
         d="M 0,56.806 H 534.167 V 0 H 0 Z"
         transform="translate(-38.159001,-42.195301)"
         id="path77" />
    </clipPath>
    <clipPath
       clipPathUnits="userSpaceOnUse"
       id="clipPath79">
      <path
         d="M 0,56.806 H 534.167 V 0 H 0 Z"
         transform="translate(-53.084101,-45.175301)"
         id="path79" />
    </clipPath>
    <clipPath
       clipPathUnits="userSpaceOnUse"
       id="clipPath81">
      <path
         d="M 0,56.806 H 534.167 V 0 H 0 Z"
         transform="translate(-56.174002,-48.195301)"
         id="path81" />
    </clipPath>
    <clipPath
       clipPathUnits="userSpaceOnUse"
       id="clipPath83">
      <path
         d="M 0,56.806 H 534.167 V 0 H 0 Z"
         transform="matrix(1,0,0,-1,-15.240201,2.5195001)"
         id="path83" />
    </clipPath>
    <clipPath
       clipPathUnits="userSpaceOnUse"
       id="clipPath85">
      <path
         d="M 0,56.806 H 534.167 V 0 H 0 Z"
         id="path85" />
    </clipPath>
  </defs>
  <g
     inkscape:label="Layer 1"
     inkscape:groupmode="layer"
     id="layer1"
     transform="translate(-161.39584,-132.02708)">
    <path
       id="path54"
       d="m 0,0 c 0.028,0.02 0.055,0.02 0.094,0.02 0.16,0 0.352,-0.168 0.621,-0.582 1.09,-1.551 1.856,-4.246 1.856,-6.445 0,-0.168 -0.028,-0.301 -0.028,-0.465 -0.121,-2.613 -0.98,-4.762 -2.691,-6.793 l -0.457,-0.551 -0.164,-0.215 v -0.066 l 0.098,-0.5 0.144,-0.899 0.149,-0.836 c 0.203,-1.128 0.285,-1.714 0.285,-1.714 0,0 0.054,0 0.121,0.019 0.066,0 0.281,0.031 0.511,0.031 0.161,0 0.325,-0.031 0.403,-0.031 1.898,-0.301 3.367,-1.984 3.785,-4.348 0.082,-0.382 0.109,-0.796 0.109,-1.214 0,-2.246 -1.093,-4.395 -2.91,-5.411 -0.109,-0.082 -0.148,-0.101 -0.148,-0.101 v -0.016 c 0,0 0.082,-0.383 0.148,-0.816 l 0.203,-1.266 0.188,-1.015 c 0.105,-0.649 0.16,-1.114 0.16,-1.532 0,-0.367 -0.039,-0.699 -0.105,-1.082 -0.461,-2.312 -2.09,-3.695 -3.786,-3.695 -0.836,0 -1.695,0.332 -2.453,1.082 -0.672,0.699 -0.969,1.332 -0.969,2.164 0,1.465 0.958,2.496 1.954,2.496 0.351,0 0.699,-0.133 1.039,-0.383 0.562,-0.48 0.82,-1.214 0.82,-1.929 0,-1.098 -0.621,-2.184 -1.684,-2.266 h -0.109 l 0.082,-0.066 c 0.445,-0.235 0.891,-0.348 1.32,-0.348 1.09,0 2.114,0.68 2.735,1.863 0.347,0.664 0.539,1.45 0.539,2.231 0,0.301 -0.043,0.601 -0.094,0.933 0,0.032 -0.043,0.301 -0.098,0.547 -0.293,1.801 -0.468,2.848 -0.468,2.848 -0.028,0 -0.082,0 -0.121,-0.031 -0.137,-0.036 -0.418,-0.118 -0.54,-0.133 -0.296,-0.051 -0.578,-0.067 -0.847,-0.067 -2.641,0 -5.094,2.196 -5.942,5.442 -0.214,0.867 -0.336,1.734 -0.336,2.598 0,1.734 0.446,3.429 1.309,4.945 0.941,1.648 1.883,3.062 3.043,4.531 l 0.402,0.516 -0.093,0.613 -0.176,1.016 -0.227,1.3 c -0.07,0.481 -0.148,0.95 -0.164,1.047 -0.066,0.551 -0.105,1.082 -0.105,1.633 0,2.098 0.551,4.113 1.586,5.727 C -0.699,-0.714 -0.148,-0.046 0,0 M 0.821,-3.292 H 0.715 c -0.554,0 -1.265,-0.633 -1.754,-1.567 -0.496,-0.918 -0.754,-2.133 -0.754,-3.379 0,-0.336 0.016,-0.683 0.055,-1.035 0.043,-0.25 0.055,-0.414 0.164,-1.016 l 0.188,-1.046 c 0.054,-0.317 0.093,-0.567 0.093,-0.602 0.012,0 0.43,0.566 0.567,0.766 1.344,1.882 2.152,3.863 2.328,5.613 0.016,0.164 0.016,0.301 0.016,0.465 0,0.515 -0.055,1.015 -0.149,1.281 -0.109,0.27 -0.351,0.484 -0.648,0.52 m -2.032,-12.872 c -0.027,0.231 -0.07,0.414 -0.07,0.45 h -0.012 c -0.027,0 -0.605,-0.832 -1.011,-1.414 -0.684,-1.036 -1.414,-2.266 -1.707,-2.868 -0.567,-1.179 -0.852,-2.496 -0.852,-3.793 0,-0.851 0.137,-1.668 0.379,-2.449 0.727,-2.312 2.398,-3.762 4.215,-3.762 0.215,0 0.457,0.016 0.687,0.067 0.297,0.066 0.661,0.199 0.661,0.25 0,0 -0.028,0.164 -0.071,0.348 l -0.39,2.382 -0.309,1.782 -0.203,1.23 -0.215,1.199 c -0.105,0.715 -0.148,0.899 -0.148,0.899 0,0 0,0.019 -0.012,0.019 -0.082,0 -0.512,-0.269 -0.699,-0.433 -0.703,-0.602 -1.067,-1.551 -1.067,-2.481 0,-0.883 0.352,-1.765 1.024,-2.281 0.148,-0.117 0.203,-0.219 0.203,-0.332 v -0.086 c -0.028,-0.199 -0.121,-0.281 -0.254,-0.281 -0.055,0 -0.121,0.015 -0.203,0.066 -1.239,0.664 -2.074,2.246 -2.074,3.977 0,2 1.011,3.73 2.558,4.414 l 0.082,0.035 -0.137,0.832 -0.375,2.23 m 2.02,-5.562 C 0.7,-21.71 0.594,-21.71 0.512,-21.71 H 0.418 0.352 l 0.051,-0.297 0.285,-1.633 0.176,-1.067 0.187,-1.046 0.375,-2.317 0.149,-0.883 c 0.054,-0.23 0.082,-0.429 0.093,-0.429 0.016,0 0.243,0.164 0.391,0.297 0.687,0.601 1.199,1.531 1.387,2.5 0.07,0.316 0.097,0.648 0.097,0.964 0,1.93 -1.16,3.68 -2.734,3.895"
       style="fill:#000000;fill-opacity:1;fill-rule:nonzero;stroke:none"
       transform="matrix(0.35277776,0,0,-0.35277776,164.7594,132.03414)"
       clip-path="url(#clipPath55)" />
    <path
       id="path56"
       d="M 0,0 H 68.606"
       style="fill:none;stroke:#000000;stroke-width:0.52;stroke-linecap:butt;stroke-linejoin:miter;stroke-miterlimit:4;stroke-dasharray:none;stroke-opacity:1"
       transform="matrix(0.35277776,0,0,-0.35277776,161.61615,134.71984)"
       clip-path="url(#clipPath57)" />
    <path
       id="path58"
       d="M 0,0 H 68.606"
       style="fill:none;stroke:#000000;stroke-width:0.52;stroke-linecap:butt;stroke-linejoin:miter;stroke-miterlimit:4;stroke-dasharray:none;stroke-opacity:1"
       transform="matrix(0.35277776,0,0,-0.35277776,161.61615,136.75925)"
       clip-path="url(#clipPath59)" />
    <path
       id="path60"
       d="M 0,0 H 68.606"
       style="fill:none;stroke:#000000;stroke-width:0.52;stroke-linecap:butt;stroke-linejoin:miter;stroke-miterlimit:4;stroke-dasharray:none;stroke-opacity:1"
       transform="matrix(0.35277776,0,0,-0.35277776,161.61615,138.79866)"
       clip-path="url(#clipPath61)" />
    <path
       id="path62"
       d="M 0,0 H 68.606"
       style="fill:none;stroke:#000000;stroke-width:0.52;stroke-linecap:butt;stroke-linejoin:miter;stroke-miterlimit:4;stroke-dasharray:none;stroke-opacity:1"
       transform="matrix(0.35277776,0,0,-0.35277776,161.61615,140.83842)"
       clip-path="url(#clipPath63)" />
    <path
       id="path64"
       d="M 0,0 H 68.606"
       style="fill:none;stroke:#000000;stroke-width:0.52;stroke-linecap:butt;stroke-linejoin:miter;stroke-miterlimit:4;stroke-dasharray:none;stroke-opacity:1"
       transform="matrix(0.35277776,0,0,-0.35277776,161.61615,142.87783)"
       clip-path="url(#clipPath65)" />
    <path
       id="path66"
       d="M 69.901,48.031 H 70.37 V 24.543 h -0.469 z"
       style="fill:#000000;fill-opacity:1;fill-rule:nonzero;stroke:#000000;stroke-width:0.155;stroke-linecap:butt;stroke-linejoin:miter;stroke-miterlimit:4;stroke-dasharray:none;stroke-opacity:1"
       transform="matrix(0.35277776,0,0,-0.35277776,161.1593,151.5993)"
       clip-path="url(#clipPath67)" />
    <path
       id="path68"
       d="M 0.748,48.031 H 1.217 V 24.543 H 0.748 Z"
       style="fill:none;stroke:#000000;stroke-width:0.155;stroke-linecap:butt;stroke-linejoin:miter;stroke-miterlimit:4;stroke-dasharray:none;stroke-opacity:1"
       transform="matrix(0.35277776,0,0,-0.35277776,161.1593,151.5993)"
       clip-path="url(#clipPath69)" />
    <path
       id="path70"
       d="M 0,0 H 0.258 C 0.473,0 0.754,0 0.82,-0.032 1.832,-0.184 2.641,-0.817 2.988,-1.699 3.109,-1.996 3.164,-2.313 3.164,-2.645 3.164,-3.461 2.801,-4.395 2.141,-5.094 1.683,-5.578 1.226,-5.875 0.512,-6.16 -0.418,-6.528 -1.211,-7.176 -1.723,-7.957 v -0.016 c 0,0 0.039,0.016 0.067,0.067 0.511,0.515 1.199,0.812 1.816,0.812 0.512,0 0.875,-0.113 1.363,-0.449 0.293,-0.184 0.563,-0.266 0.821,-0.266 0.105,0 0.215,0 0.336,0.035 0.175,0.047 0.363,0.215 0.429,0.348 0.043,0.117 0.11,0.168 0.192,0.168 0.105,0 0.215,-0.102 0.215,-0.25 0,-0.117 -0.122,-0.531 -0.231,-0.816 -0.43,-1.067 -1.184,-1.731 -1.91,-1.731 -0.055,0 -0.094,0 -0.149,0.016 -0.191,0 -0.269,0.066 -0.511,0.265 -0.512,0.418 -1.16,0.633 -1.727,0.633 -0.242,0 -0.457,-0.031 -0.656,-0.133 -0.27,-0.117 -0.527,-0.316 -0.609,-0.465 -0.04,-0.117 -0.106,-0.152 -0.188,-0.152 -0.066,0 -0.133,0.035 -0.176,0.137 l -0.027,0.047 v 0.234 c 0,0.199 0.016,0.266 0.016,0.332 0.011,0.051 0.027,0.152 0.027,0.235 0.242,1.398 1.062,2.648 2.18,3.261 0.918,0.535 1.523,1.485 1.628,2.684 0.028,0.097 0.028,0.179 0.028,0.281 0,1.066 -0.645,1.797 -1.563,1.797 h -0.215 c -0.132,-0.016 -0.175,-0.016 -0.175,-0.047 0,0 0,-0.019 0.043,-0.051 0.308,-0.218 0.457,-0.633 0.457,-1.035 0,-0.516 -0.215,-0.996 -0.633,-1.195 -0.137,-0.051 -0.27,-0.067 -0.379,-0.067 -0.563,0 -1.035,0.598 -1.035,1.313 0,0.133 0,0.266 0.027,0.418 C -2.059,-0.782 -1.106,-0.149 0,0 M 0.418,-10.805 H 0.445 0.402 0.418 m 0,11.223 H 0.445 0.402 Z"
       style="fill:#000000;fill-opacity:1;fill-rule:nonzero;stroke:none"
       transform="matrix(0.35277776,0,0,-0.35277776,170.16148,134.99254)"
       clip-path="url(#clipPath71)" />
    <path
       id="path72"
       d="m 0,0 c 0.015,0.019 0.203,0.019 0.781,0.019 h 0.606 1.359 l 0.043,-0.051 c 0.066,-0.05 0.105,-0.132 0.105,-0.199 0,-0.101 -0.039,-0.168 -0.093,-0.234 C 2.789,-0.516 2.668,-0.649 2.586,-0.797 L 1.871,-1.813 0.957,-3.094 0.472,-3.778 -0.254,-4.809 -1.211,-6.16 c -0.16,-0.25 -0.336,-0.45 -0.336,-0.45 0,-0.031 0.121,-0.031 1.238,-0.031 h 1.227 v 1.082 c 0,1.098 0,1.113 0.012,1.133 0.027,0.047 0.148,0.23 0.621,0.914 l 0.375,0.5 0.285,0.449 0.293,0.383 0.148,0.234 c 0.055,0.098 0.137,0.118 0.203,0.118 0.082,0 0.149,-0.051 0.188,-0.137 0.015,-0.047 0.015,-0.082 0.015,-1.313 v -1.05 -2.313 h 0.336 c 0.309,0 0.325,0 0.364,-0.019 0.109,-0.047 0.16,-0.18 0.16,-0.333 0,-0.082 -0.012,-0.183 -0.067,-0.25 C 3.769,-7.325 3.758,-7.325 3.394,-7.325 H 3.058 V -7.606 C 3.07,-8.457 3.207,-8.789 3.73,-9.141 3.918,-9.254 3.961,-9.289 3.961,-9.457 3.961,-9.571 3.933,-9.621 3.867,-9.688 L 3.824,-9.707 H 0.148 l -0.039,0.019 c -0.082,0.067 -0.094,0.117 -0.094,0.231 0,0.168 0.012,0.203 0.215,0.316 0.524,0.352 0.66,0.684 0.66,1.535 v 0.281 h -1.55 c -0.282,-0.035 -0.512,-0.035 -0.7,-0.035 -0.847,0 -0.863,0.035 -0.875,0.035 -0.082,0.036 -0.109,0.133 -0.109,0.25 0,0.118 0,0.118 0.27,0.5 1.132,1.7 1.925,4.161 1.925,6.125 0,0.301 0.043,0.403 0.149,0.45 M 0.808,-10.621 H 0.82 0.781 0.808 m 0,11.222 H 0.82 0.781 Z"
       style="fill:#000000;fill-opacity:1;fill-rule:nonzero;stroke:none"
       transform="matrix(0.35277776,0,0,-0.35277776,170.0306,139.13627)"
       clip-path="url(#clipPath73)" />
    <path
       id="path74"
       d="M 0,0 V -20.234"
       style="fill:none;stroke:#000000;stroke-width:0.78;stroke-linecap:butt;stroke-linejoin:miter;stroke-miterlimit:4;stroke-dasharray:none;stroke-opacity:1"
       transform="matrix(0.35277776,0,0,-0.35277776,173.53069,137.77913)"
       clip-path="url(#clipPath75)" />
    <path
       id="path76"
       d="M 0,0 H 0.144 0.156 0.3 c 1.184,-0.082 1.879,-1.039 1.879,-2.238 0,-0.586 -0.16,-1.25 -0.551,-1.883 -0.75,-1.25 -1.972,-1.934 -3.035,-1.934 -0.828,0 -1.535,0.406 -1.875,1.235 -0.105,0.324 -0.16,0.632 -0.16,0.972 0,1.77 1.602,3.735 3.442,3.848"
       style="fill:#000000;fill-opacity:1;fill-rule:nonzero;stroke:none"
       transform="matrix(0.35277776,0,0,-0.35277776,174.62095,136.71374)"
       clip-path="url(#clipPath77)" />
    <path
       id="path78"
       d="M 0,0 V -20.234"
       style="fill:none;stroke:#000000;stroke-width:0.78;stroke-linecap:butt;stroke-linejoin:miter;stroke-miterlimit:4;stroke-dasharray:none;stroke-opacity:1"
       transform="matrix(0.35277776,0,0,-0.35277776,179.88619,135.66246)"
       clip-path="url(#clipPath79)" />
    <path
       id="path80"
       d="m 0,0 h 0.145 0.011 0.145 c 1.18,-0.082 1.879,-1.039 1.879,-2.238 0,-0.586 -0.16,-1.25 -0.555,-1.883 -0.746,-1.25 -1.969,-1.934 -3.031,-1.934 -0.828,0 -1.535,0.406 -1.879,1.235 -0.105,0.324 -0.156,0.632 -0.156,0.972 0,1.77 1.601,3.735 3.441,3.848"
       style="fill:#000000;fill-opacity:1;fill-rule:nonzero;stroke:none"
       transform="matrix(0.35277776,0,0,-0.35277776,180.97624,134.59707)"
       clip-path="url(#clipPath81)" />
    <path
       id="path84"
       d="M 0.748,48.013 H 1.217 V 24.525 H 0.748 Z"
       style="fill:#000000;fill-opacity:1;fill-rule:nonzero;stroke:none"
       transform="matrix(0.35277776,0,0,-0.35277776,161.1593,151.5993)"
       clip-path="url(#clipPath85)" />
  </g>
</svg>
