<?xml version="1.0" encoding="UTF-8" standalone="no"?>
<!-- Created with Inkscape (http://www.inkscape.org/) -->

<svg
   width="24.615597mm"
   height="19.198637mm"
   viewBox="0 0 24.615597 19.198637"
   version="1.1"
   id="svg1"
   inkscape:version="1.3.2 (091e20ef0f, 2023-11-25, custom)"
   sodipodi:docname="translocation.svg"
   xmlns:inkscape="http://www.inkscape.org/namespaces/inkscape"
   xmlns:sodipodi="http://sodipodi.sourceforge.net/DTD/sodipodi-0.dtd"
   xmlns="http://www.w3.org/2000/svg"
   xmlns:svg="http://www.w3.org/2000/svg">
  <sodipodi:namedview
     id="namedview1"
     pagecolor="#505050"
     bordercolor="#ffffff"
     borderopacity="1"
     inkscape:showpageshadow="0"
     inkscape:pageopacity="0"
     inkscape:pagecheckerboard="1"
     inkscape:deskcolor="#d1d1d1"
     inkscape:document-units="mm"
     inkscape:zoom="0.91218254"
     inkscape:cx="4.3850872"
     inkscape:cy="8.7701745"
     inkscape:window-width="956"
     inkscape:window-height="1049"
     inkscape:window-x="2880"
     inkscape:window-y="0"
     inkscape:window-maximized="1"
     inkscape:current-layer="layer1" />
  <defs
     id="defs1">
    <clipPath
       clipPathUnits="userSpaceOnUse"
       id="clipPath119">
      <path
         d="M 0,56.806 H 534.167 V 0 H 0 Z"
         transform="translate(-408.25451,-40.258901)"
         id="path119" />
    </clipPath>
    <clipPath
       clipPathUnits="userSpaceOnUse"
       id="clipPath121">
      <path
         d="M 0,56.806 H 534.167 V 0 H 0 Z"
         transform="translate(-411.34501,-43.278901)"
         id="path121" />
    </clipPath>
    <clipPath
       clipPathUnits="userSpaceOnUse"
       id="clipPath123">
      <path
         d="M 0,56.806 H 534.167 V 0 H 0 Z"
         transform="translate(-426.27011,-46.258901)"
         id="path123" />
    </clipPath>
    <clipPath
       clipPathUnits="userSpaceOnUse"
       id="clipPath125">
      <path
         d="M 0,56.806 H 534.167 V 0 H 0 Z"
         transform="translate(-429.36001,-49.278901)"
         id="path125" />
    </clipPath>
    <clipPath
       clipPathUnits="userSpaceOnUse"
       id="clipPath127">
      <path
         d="M 0,56.806 H 534.167 V 0 H 0 Z"
         transform="translate(-374.44541,-48.924501)"
         id="path127" />
    </clipPath>
    <clipPath
       clipPathUnits="userSpaceOnUse"
       id="clipPath129">
      <path
         d="M 0,56.806 H 534.167 V 0 H 0 Z"
         transform="translate(-374.44541,-43.143501)"
         id="path129" />
    </clipPath>
    <clipPath
       clipPathUnits="userSpaceOnUse"
       id="clipPath131">
      <path
         d="M 0,56.806 H 534.167 V 0 H 0 Z"
         transform="translate(-374.44541,-37.362501)"
         id="path131" />
    </clipPath>
    <clipPath
       clipPathUnits="userSpaceOnUse"
       id="clipPath133">
      <path
         d="M 0,56.806 H 534.167 V 0 H 0 Z"
         transform="translate(-374.44541,-31.581501)"
         id="path133" />
    </clipPath>
    <clipPath
       clipPathUnits="userSpaceOnUse"
       id="clipPath135">
      <path
         d="M 0,56.806 H 534.167 V 0 H 0 Z"
         transform="translate(-374.44541,-25.799501)"
         id="path135" />
    </clipPath>
    <clipPath
       clipPathUnits="userSpaceOnUse"
       id="clipPath137">
      <path
         d="M 0,56.806 H 534.167 V 0 H 0 Z"
         id="path137" />
    </clipPath>
    <clipPath
       clipPathUnits="userSpaceOnUse"
       id="clipPath139">
      <path
         d="M 0,56.806 H 534.167 V 0 H 0 Z"
         id="path139" />
    </clipPath>
    <clipPath
       clipPathUnits="userSpaceOnUse"
       id="clipPath141">
      <path
         d="M 0,56.806 H 534.167 V 0 H 0 Z"
         transform="translate(-383.35541,-56.538501)"
         id="path141" />
    </clipPath>
    <clipPath
       clipPathUnits="userSpaceOnUse"
       id="clipPath143">
      <path
         d="M 0,56.806 H 534.167 V 0 H 0 Z"
         transform="translate(-398.66841,-48.151501)"
         id="path143" />
    </clipPath>
    <clipPath
       clipPathUnits="userSpaceOnUse"
       id="clipPath145">
      <path
         d="M 0,56.806 H 534.167 V 0 H 0 Z"
         transform="translate(-398.29741,-36.405501)"
         id="path145" />
    </clipPath>
    <clipPath
       clipPathUnits="userSpaceOnUse"
       id="clipPath147">
      <path
         d="M 0,56.806 H 534.167 V 0 H 0 Z"
         transform="translate(-405.48841,-37.362501)"
         id="path147" />
    </clipPath>
    <clipPath
       clipPathUnits="userSpaceOnUse"
       id="clipPath149">
      <path
         d="M 0,56.806 H 534.167 V 0 H 0 Z"
         transform="translate(-405.48841,-25.799501)"
         id="path149" />
    </clipPath>
    <clipPath
       clipPathUnits="userSpaceOnUse"
       id="clipPath151">
      <path
         d="M 0,56.806 H 534.167 V 0 H 0 Z"
         transform="translate(-414.59041,-42.264501)"
         id="path151" />
    </clipPath>
    <clipPath
       clipPathUnits="userSpaceOnUse"
       id="clipPath153">
      <path
         d="M 0,56.806 H 534.167 V 0 H 0 Z"
         transform="translate(-423.68001,-51.815501)"
         id="path153" />
    </clipPath>
    <clipPath
       clipPathUnits="userSpaceOnUse"
       id="clipPath155">
      <path
         d="M 0,56.806 H 534.167 V 0 H 0 Z"
         transform="translate(-426.76541,-54.835501)"
         id="path155" />
    </clipPath>
    <clipPath
       clipPathUnits="userSpaceOnUse"
       id="clipPath157">
      <path
         d="M 0,56.806 H 534.167 V 0 H 0 Z"
         transform="translate(-426.69941,-47.159501)"
         id="path157" />
    </clipPath>
    <clipPath
       clipPathUnits="userSpaceOnUse"
       id="clipPath159">
      <path
         d="M 0,56.806 H 534.167 V 0 H 0 Z"
         transform="translate(-433.32031,-51.815501)"
         id="path159" />
    </clipPath>
    <clipPath
       clipPathUnits="userSpaceOnUse"
       id="clipPath161">
      <path
         d="M 0,56.806 H 534.167 V 0 H 0 Z"
         transform="translate(-436.41041,-54.835501)"
         id="path161" />
    </clipPath>
    <clipPath
       clipPathUnits="userSpaceOnUse"
       id="clipPath163">
      <path
         d="M 0,56.806 H 534.167 V 0 H 0 Z"
         transform="matrix(1,0,0,-1,-374.76901,2.2725003)"
         id="path163" />
    </clipPath>
  </defs>
  <g
     inkscape:label="Layer 1"
     inkscape:groupmode="layer"
     id="layer1"
     transform="translate(-94.985416,-117.475)">
    <path
       id="path118"
       d="M 0,0 V -20.234"
       style="fill:none;stroke:#cccccc;stroke-width:0.78;stroke-linecap:butt;stroke-linejoin:miter;stroke-miterlimit:4;stroke-dasharray:none;stroke-opacity:1"
       transform="matrix(0.35277776,0,0,-0.35277776,107.13297,123.22337)"
       clip-path="url(#clipPath119)" />
    <path
       id="path120"
       d="M 0,0 H 0.144 0.156 0.3 c 1.184,-0.082 1.879,-1.039 1.879,-2.238 0,-0.586 -0.16,-1.25 -0.551,-1.883 -0.75,-1.25 -1.972,-1.934 -3.035,-1.934 -0.828,0 -1.535,0.406 -1.875,1.235 -0.105,0.324 -0.16,0.632 -0.16,0.972 0,1.77 1.602,3.735 3.442,3.848"
       style="fill:#cccccc;fill-opacity:1;fill-rule:nonzero;stroke:none"
       transform="matrix(0.35277776,0,0,-0.35277776,108.22323,122.15798)"
       clip-path="url(#clipPath121)" />
    <path
       id="path122"
       d="M 0,0 V -20.234"
       style="fill:none;stroke:#cccccc;stroke-width:0.78;stroke-linecap:butt;stroke-linejoin:miter;stroke-miterlimit:4;stroke-dasharray:none;stroke-opacity:1"
       transform="matrix(0.35277776,0,0,-0.35277776,113.48847,121.1067)"
       clip-path="url(#clipPath123)" />
    <path
       id="path124"
       d="m 0,0 h 0.145 0.011 0.145 c 1.18,-0.082 1.879,-1.039 1.879,-2.238 0,-0.586 -0.16,-1.25 -0.555,-1.883 -0.746,-1.25 -1.969,-1.934 -3.031,-1.934 -0.828,0 -1.535,0.406 -1.879,1.235 -0.105,0.324 -0.156,0.632 -0.156,0.972 0,1.77 1.601,3.735 3.441,3.848"
       style="fill:#cccccc;fill-opacity:1;fill-rule:nonzero;stroke:none"
       transform="matrix(0.35277776,0,0,-0.35277776,114.57852,120.04131)"
       clip-path="url(#clipPath125)" />
    <path
       id="path126"
       d="M 0,0 H 68.605"
       style="fill:none;stroke:#000000;stroke-width:0.52;stroke-linecap:butt;stroke-linejoin:miter;stroke-miterlimit:4;stroke-dasharray:none;stroke-opacity:1"
       transform="matrix(0.35277776,0,0,-0.35277776,95.205871,120.16634)"
       clip-path="url(#clipPath127)" />
    <path
       id="path128"
       d="M 0,0 H 68.605"
       style="fill:none;stroke:#000000;stroke-width:0.52;stroke-linecap:butt;stroke-linejoin:miter;stroke-miterlimit:4;stroke-dasharray:none;stroke-opacity:1"
       transform="matrix(0.35277776,0,0,-0.35277776,95.205871,122.20575)"
       clip-path="url(#clipPath129)" />
    <path
       id="path130"
       d="M 0,0 H 68.605"
       style="fill:none;stroke:#000000;stroke-width:0.52;stroke-linecap:butt;stroke-linejoin:miter;stroke-miterlimit:4;stroke-dasharray:none;stroke-opacity:1"
       transform="matrix(0.35277776,0,0,-0.35277776,95.205871,124.24515)"
       clip-path="url(#clipPath131)" />
    <path
       id="path132"
       d="M 0,0 H 68.605"
       style="fill:none;stroke:#000000;stroke-width:0.52;stroke-linecap:butt;stroke-linejoin:miter;stroke-miterlimit:4;stroke-dasharray:none;stroke-opacity:1"
       transform="matrix(0.35277776,0,0,-0.35277776,95.205871,126.28456)"
       clip-path="url(#clipPath133)" />
    <path
       id="path134"
       d="M 0,0 H 68.605"
       style="fill:none;stroke:#000000;stroke-width:0.52;stroke-linecap:butt;stroke-linejoin:miter;stroke-miterlimit:4;stroke-dasharray:none;stroke-opacity:1"
       transform="matrix(0.35277776,0,0,-0.35277776,95.205871,128.32432)"
       clip-path="url(#clipPath135)" />
    <path
       id="path136"
       d="m 443.05,49.213 h 0.469 V 25.51 h -0.469 z"
       style="fill:#000000;fill-opacity:1;fill-rule:nonzero;stroke:#000000;stroke-width:0.156;stroke-linecap:butt;stroke-linejoin:miter;stroke-miterlimit:4;stroke-dasharray:none;stroke-opacity:1"
       transform="matrix(0.35277776,0,0,-0.35277776,-36.890143,137.42581)"
       clip-path="url(#clipPath137)" />
    <path
       id="path138"
       d="m 373.898,49.104 h 0.469 V 25.616 h -0.469 z"
       style="fill:#000000;fill-opacity:1;fill-rule:nonzero;stroke:#000000;stroke-width:0.155;stroke-linecap:butt;stroke-linejoin:miter;stroke-miterlimit:4;stroke-dasharray:none;stroke-opacity:1"
       transform="matrix(0.35277776,0,0,-0.35277776,-36.890143,137.42581)"
       clip-path="url(#clipPath139)" />
    <path
       id="path140"
       d="m 0,0 c 0.028,0.015 0.055,0.015 0.094,0.015 0.16,0 0.351,-0.168 0.621,-0.582 1.09,-1.547 1.856,-4.246 1.856,-6.445 0,-0.164 -0.028,-0.297 -0.028,-0.465 -0.121,-2.613 -0.98,-4.762 -2.691,-6.793 l -0.457,-0.551 -0.164,-0.214 v -0.067 l 0.093,-0.5 0.149,-0.898 0.148,-0.832 c 0.203,-1.133 0.285,-1.715 0.285,-1.715 0,0 0.051,0 0.122,0.015 0.066,0 0.281,0.036 0.511,0.036 0.16,0 0.321,-0.036 0.403,-0.036 1.898,-0.3 3.367,-1.98 3.785,-4.343 0.082,-0.383 0.105,-0.801 0.105,-1.219 0,-2.246 -1.09,-4.395 -2.906,-5.41 -0.109,-0.082 -0.148,-0.098 -0.148,-0.098 v -0.019 c 0,0 0.082,-0.383 0.148,-0.813 l 0.203,-1.266 0.188,-1.015 c 0.105,-0.653 0.16,-1.117 0.16,-1.535 0,-0.364 -0.039,-0.7 -0.106,-1.082 -0.461,-2.313 -2.09,-3.696 -3.785,-3.696 -0.836,0 -1.699,0.332 -2.453,1.082 -0.672,0.7 -0.969,1.332 -0.969,2.164 0,1.465 0.957,2.5 1.953,2.5 0.352,0 0.7,-0.132 1.039,-0.382 0.563,-0.485 0.821,-1.219 0.821,-1.934 0,-1.098 -0.621,-2.18 -1.684,-2.262 h -0.109 l 0.082,-0.07 c 0.445,-0.23 0.89,-0.348 1.32,-0.348 1.09,0 2.113,0.684 2.735,1.864 0.347,0.668 0.539,1.449 0.539,2.23 0,0.301 -0.043,0.602 -0.098,0.934 0,0.035 -0.039,0.3 -0.094,0.55 -0.297,1.797 -0.469,2.848 -0.469,2.848 -0.027,0 -0.082,0 -0.121,-0.035 -0.136,-0.031 -0.418,-0.117 -0.539,-0.133 -0.297,-0.051 -0.582,-0.066 -0.847,-0.066 -2.641,0 -5.094,2.199 -5.942,5.445 -0.215,0.863 -0.336,1.731 -0.336,2.598 0,1.73 0.446,3.429 1.305,4.945 0.945,1.648 1.887,3.063 3.047,4.527 l 0.402,0.516 -0.094,0.617 -0.175,1.016 -0.231,1.297 c -0.066,0.484 -0.144,0.949 -0.16,1.05 -0.066,0.547 -0.109,1.083 -0.109,1.629 0,2.102 0.554,4.114 1.589,5.731 C -0.699,-0.715 -0.148,-0.051 0,0 M 0.821,-3.297 H 0.715 c -0.555,0 -1.27,-0.633 -1.754,-1.567 -0.496,-0.914 -0.754,-2.128 -0.754,-3.378 0,-0.333 0.016,-0.684 0.055,-1.032 0.039,-0.25 0.055,-0.418 0.16,-1.015 l 0.191,-1.051 c 0.055,-0.317 0.094,-0.567 0.094,-0.598 0.012,0 0.43,0.567 0.567,0.766 1.343,1.879 2.152,3.863 2.328,5.609 0.015,0.168 0.015,0.301 0.015,0.469 0,0.516 -0.054,1.016 -0.148,1.281 -0.109,0.266 -0.352,0.481 -0.648,0.516 m -2.032,-12.871 c -0.027,0.234 -0.07,0.418 -0.07,0.449 h -0.012 c -0.027,0 -0.605,-0.832 -1.012,-1.414 -0.683,-1.031 -1.414,-2.266 -1.707,-2.863 -0.566,-1.184 -0.851,-2.5 -0.851,-3.797 0,-0.848 0.137,-1.664 0.379,-2.449 0.726,-2.313 2.394,-3.762 4.215,-3.762 0.214,0 0.457,0.015 0.687,0.066 0.297,0.067 0.66,0.199 0.66,0.25 0,0 -0.027,0.168 -0.07,0.352 l -0.391,2.379 -0.308,1.781 -0.203,1.234 -0.215,1.2 c -0.106,0.714 -0.149,0.898 -0.149,0.898 0,0 0,0.016 -0.011,0.016 -0.082,0 -0.512,-0.266 -0.7,-0.434 -0.703,-0.598 -1.066,-1.547 -1.066,-2.48 0,-0.883 0.352,-1.766 1.023,-2.282 0.149,-0.117 0.204,-0.215 0.204,-0.332 v -0.082 c -0.028,-0.203 -0.121,-0.285 -0.258,-0.285 -0.051,0 -0.121,0.016 -0.199,0.066 -1.239,0.668 -2.075,2.25 -2.075,3.981 0,1.996 1.008,3.73 2.559,4.41 l 0.082,0.035 -0.137,0.832 -0.375,2.231 m 2.02,-5.559 c -0.11,0.016 -0.215,0.016 -0.297,0.016 H 0.418 0.348 l 0.055,-0.301 0.285,-1.633 0.172,-1.062 0.191,-1.051 0.375,-2.313 0.148,-0.882 c 0.055,-0.235 0.082,-0.434 0.094,-0.434 0.016,0 0.242,0.168 0.391,0.301 0.687,0.597 1.199,1.531 1.386,2.496 0.071,0.316 0.098,0.648 0.098,0.965 0,1.933 -1.16,3.679 -2.734,3.898"
       style="fill:#000000;fill-opacity:1;fill-rule:nonzero;stroke:none"
       transform="matrix(0.35277776,0,0,-0.35277776,98.349121,117.48029)"
       clip-path="url(#clipPath141)" />
    <path
       id="path142"
       d="M 0,0 H 0.254 C 0.472,0 0.754,0 0.82,-0.035 1.832,-0.184 2.64,-0.816 2.988,-1.699 3.109,-2 3.164,-2.316 3.164,-2.648 3.164,-3.465 2.8,-4.398 2.14,-5.098 1.683,-5.578 1.226,-5.879 0.511,-6.16 -0.418,-6.527 -1.211,-7.176 -1.723,-7.961 v -0.016 c 0,0 0.039,0.016 0.066,0.067 0.512,0.515 1.2,0.816 1.817,0.816 0.512,0 0.875,-0.117 1.363,-0.449 0.293,-0.184 0.563,-0.266 0.82,-0.266 0.106,0 0.215,0 0.336,0.032 0.176,0.05 0.364,0.218 0.43,0.351 0.043,0.113 0.109,0.164 0.191,0.164 0.106,0 0.215,-0.097 0.215,-0.25 0,-0.117 -0.121,-0.531 -0.23,-0.816 -0.43,-1.063 -1.184,-1.731 -1.91,-1.731 -0.055,0 -0.098,0 -0.149,0.016 -0.191,0 -0.269,0.066 -0.511,0.27 -0.512,0.414 -1.161,0.632 -1.727,0.632 -0.242,0 -0.457,-0.035 -0.66,-0.132 -0.27,-0.118 -0.524,-0.317 -0.606,-0.469 -0.039,-0.117 -0.105,-0.149 -0.187,-0.149 -0.067,0 -0.133,0.032 -0.176,0.133 l -0.027,0.051 v 0.23 c 0,0.204 0.015,0.27 0.015,0.336 0.012,0.047 0.028,0.149 0.028,0.231 0.242,1.398 1.062,2.648 2.179,3.265 0.918,0.532 1.524,1.481 1.629,2.68 0.032,0.098 0.032,0.184 0.032,0.281 0,1.067 -0.649,1.801 -1.563,1.801 h -0.215 c -0.137,-0.019 -0.176,-0.019 -0.176,-0.051 0,0 0,-0.015 0.039,-0.05 0.309,-0.215 0.458,-0.633 0.458,-1.032 0,-0.515 -0.215,-1 -0.633,-1.199 -0.133,-0.051 -0.27,-0.066 -0.375,-0.066 -0.567,0 -1.039,0.597 -1.039,1.316 0,0.133 0,0.266 0.031,0.414 0.199,0.766 1.156,1.399 2.262,1.551 M 0.422,-10.809 H 0.449 0.41 0.422 m 0,11.223 H 0.449 0.41 0.425"
       style="fill:#000000;fill-opacity:1;fill-rule:nonzero;stroke:none"
       transform="matrix(0.35277776,0,0,-0.35277776,103.75121,120.43904)"
       clip-path="url(#clipPath143)" />
    <path
       id="path144"
       d="m 0,0 c 0.015,0.015 0.203,0.015 0.781,0.015 h 0.605 1.36 l 0.043,-0.05 C 2.855,-0.082 2.894,-0.168 2.894,-0.235 2.894,-0.332 2.855,-0.399 2.8,-0.469 2.789,-0.516 2.668,-0.649 2.586,-0.801 L 1.871,-1.817 0.957,-3.098 0.472,-3.781 -0.254,-4.813 -1.211,-6.16 c -0.16,-0.25 -0.336,-0.449 -0.336,-0.449 0,-0.036 0.121,-0.036 1.238,-0.036 h 1.227 v 1.082 c 0,1.102 0,1.118 0.011,1.133 0.028,0.051 0.149,0.235 0.621,0.914 l 0.375,0.5 0.286,0.449 0.296,0.383 0.149,0.235 c 0.051,0.101 0.133,0.117 0.199,0.117 0.082,0 0.148,-0.051 0.191,-0.133 0.012,-0.051 0.012,-0.082 0.012,-1.316 v -1.047 -2.317 h 0.336 c 0.313,0 0.324,0 0.363,-0.015 0.11,-0.051 0.164,-0.184 0.164,-0.332 0,-0.086 -0.015,-0.184 -0.07,-0.25 C 3.773,-7.328 3.757,-7.328 3.394,-7.328 H 3.058 v -0.281 c 0.016,-0.848 0.149,-1.184 0.672,-1.532 0.191,-0.117 0.231,-0.152 0.231,-0.316 0,-0.117 -0.028,-0.168 -0.094,-0.235 L 3.828,-9.707 h -3.68 l -0.039,0.015 c -0.082,0.067 -0.094,0.118 -0.094,0.235 0,0.164 0.016,0.199 0.215,0.316 0.527,0.348 0.66,0.684 0.66,1.532 v 0.281 h -1.547 c -0.285,-0.031 -0.511,-0.031 -0.703,-0.031 -0.847,0 -0.859,0.031 -0.875,0.031 -0.078,0.035 -0.105,0.133 -0.105,0.25 0,0.117 0,0.117 0.269,0.5 1.129,1.699 1.926,4.164 1.926,6.129 0,0.297 0.039,0.398 0.148,0.449 M 0.808,-10.625 H 0.824 0.785 0.812 m 0,11.223 H 0.828 0.785 Z"
       style="fill:#000000;fill-opacity:1;fill-rule:nonzero;stroke:none"
       transform="matrix(0.35277776,0,0,-0.35277776,103.62033,124.58276)"
       clip-path="url(#clipPath145)" />
    <path
       id="path146"
       d="M 0,0 H 37.562"
       style="fill:none;stroke:#000000;stroke-width:0.52;stroke-linecap:butt;stroke-linejoin:miter;stroke-miterlimit:4;stroke-dasharray:none;stroke-opacity:1"
       transform="matrix(0.35277776,0,0,-0.35277776,106.15715,124.24515)"
       clip-path="url(#clipPath147)" />
    <path
       id="path148"
       d="M 0,0 H 37.562"
       style="fill:none;stroke:#000000;stroke-width:0.52;stroke-linecap:butt;stroke-linejoin:miter;stroke-miterlimit:4;stroke-dasharray:none;stroke-opacity:1"
       transform="matrix(0.35277776,0,0,-0.35277776,106.15715,128.32432)"
       clip-path="url(#clipPath149)" />
    <path
       id="path150"
       d="m 0,0 c 0.066,0 0.132,0.016 0.199,0.016 0.601,0 1.156,-0.535 1.301,-1.281 0.023,-0.133 0.039,-0.262 0.039,-0.407 0,-0.422 -0.121,-0.843 -0.356,-1.136 l -0.039,-0.051 0.09,0.015 c 0.711,0.247 1.34,1.024 1.641,1.981 0.015,0.082 0.054,0.148 0.082,0.164 0.05,0.098 0.129,0.129 0.207,0.129 0.144,0 0.265,-0.129 0.265,-0.324 0,-0.082 -1.906,-8.2 -1.945,-8.278 -0.051,-0.113 -0.145,-0.164 -0.25,-0.164 -0.106,0 -0.207,0.067 -0.25,0.211 -0.024,0.016 -0.024,0.031 -0.024,0.067 0,0.129 0.118,0.582 0.735,3.195 0.394,1.656 0.723,3.019 0.723,3.055 0,0 -0.055,-0.051 -0.106,-0.114 -0.484,-0.457 -1.062,-0.683 -1.629,-0.683 -0.5,0 -0.984,0.179 -1.363,0.57 -0.344,0.34 -0.473,0.809 -0.473,1.281 0,0.813 0.418,1.59 1.153,1.754"
       style="fill:#9e2a2b;fill-opacity:1;fill-rule:nonzero;stroke:none"
       transform="matrix(0.35277776,0,0,-0.35277776,109.36814,122.51584)"
       clip-path="url(#clipPath151)" />
    <path
       id="path152"
       d="M 0,0 V -20.234"
       style="fill:none;stroke:#9e2a2b;stroke-width:0.78;stroke-linecap:butt;stroke-linejoin:miter;stroke-miterlimit:4;stroke-dasharray:none;stroke-opacity:1"
       transform="matrix(0.35277776,0,0,-0.35277776,112.57474,119.14646)"
       clip-path="url(#clipPath153)" />
    <path
       id="path154"
       d="m 0,0 h 0.145 0.016 0.144 c 1.18,-0.082 1.875,-1.039 1.875,-2.243 0,-0.586 -0.156,-1.25 -0.551,-1.882 -0.746,-1.25 -1.968,-1.934 -3.031,-1.934 -0.828,0 -1.535,0.406 -1.879,1.234 -0.105,0.325 -0.156,0.633 -0.156,0.977 0,1.769 1.601,3.73 3.437,3.848"
       style="fill:#9e2a2b;fill-opacity:1;fill-rule:nonzero;stroke:none"
       transform="matrix(0.35277776,0,0,-0.35277776,113.6632,118.08107)"
       clip-path="url(#clipPath155)" />
    <path
       id="path156"
       d="m 0,0 c 0.023,0.015 0.062,0.015 0.105,0.015 0.09,0 0.168,-0.078 0.274,-0.289 0.933,-1.754 1.418,-3.769 1.418,-5.715 0,-0.339 0,-0.667 -0.039,-0.976 -0.157,-1.848 -0.789,-3.539 -1.735,-4.625 -1.007,-1.168 -1.691,-2.109 -2.296,-3.199 -0.34,-0.582 -0.668,-1.297 -0.762,-1.657 -0.039,-0.113 -0.145,-0.226 -0.235,-0.226 h -0.027 v 5.051 h 0.066 c 0.34,0 1.024,0.144 1.469,0.324 1.723,0.73 2.875,3.117 2.875,5.844 0,0.226 -0.012,0.468 -0.023,0.699 -0.121,1.41 -0.528,2.887 -1.168,4.105 -0.067,0.129 -0.106,0.262 -0.106,0.356 0,0.133 0.051,0.246 0.184,0.293"
       style="fill:#9e2a2b;fill-opacity:1;fill-rule:nonzero;stroke:none"
       transform="matrix(0.35277776,0,0,-0.35277776,113.63992,120.78899)"
       clip-path="url(#clipPath157)" />
    <path
       id="path158"
       d="M 0,0 V -20.234"
       style="fill:none;stroke:#9e2a2b;stroke-width:0.78;stroke-linecap:butt;stroke-linejoin:miter;stroke-miterlimit:4;stroke-dasharray:none;stroke-opacity:1"
       transform="matrix(0.35277776,0,0,-0.35277776,115.97563,119.14646)"
       clip-path="url(#clipPath159)" />
    <path
       id="path160"
       d="m 0,0 h 0.144 0.012 0.145 c 1.183,-0.082 1.879,-1.039 1.879,-2.243 0,-0.586 -0.161,-1.25 -0.551,-1.882 -0.75,-1.25 -1.973,-1.934 -3.035,-1.934 -0.828,0 -1.536,0.406 -1.875,1.234 -0.106,0.325 -0.161,0.633 -0.161,0.977 0,1.769 1.602,3.73 3.442,3.848"
       style="fill:#9e2a2b;fill-opacity:1;fill-rule:nonzero;stroke:none"
       transform="matrix(0.35277776,0,0,-0.35277776,117.06575,118.08107)"
       clip-path="url(#clipPath161)" />
    <path
       id="path162"
       d="m 3.0933047,-0.94951562 0.1523437,0.9375 c -0.2988281,0.06152343 -0.5625,0.09375 -0.796875,0.09375 -0.383789,0 -0.6796875,-0.05859375 -0.890625,-0.17578125 C 1.3472109,-0.21709375 1.1977969,-0.37822656 1.1128359,-0.57451562 1.0249453,-0.77666406 0.98392969,-1.1956094 0.98392969,-1.8284219 v -3.5742187 h -0.7734375 v -0.8203125 h 0.7734375 v -1.546875 L 2.0386172,-8.4026406 v 2.1796875 h 1.0546875 v 0.8203125 H 2.0386172 v 3.6328125 c 0,0.3046875 0.014648,0.5009765 0.046875,0.5859375 0.038086,0.087891 0.099609,0.1582031 0.1875,0.21093748 0.084961,0.046875 0.2050781,0.0703125 0.3632812,0.0703125 0.1171875,0 0.2695313,-0.0146484 0.4570313,-0.046875 z M 4.121625,-2.96875e-4 V -6.2229531 h 0.9492187 v 0.9375 c 0.2402344,-0.4365235 0.4628907,-0.7265625 0.6679688,-0.8671875 0.2021484,-0.140625 0.4277344,-0.2109375 0.6796875,-0.2109375 0.3515625,0 0.7089844,0.1142578 1.078125,0.3398437 l -0.3632813,0.9726563 c -0.2578125,-0.1464844 -0.515625,-0.2226563 -0.7734375,-0.2226563 -0.2285156,0 -0.4335937,0.070312 -0.6210937,0.2109375 -0.1816406,0.1347657 -0.3105469,0.3251953 -0.3867188,0.5742188 -0.1171875,0.375 -0.1757812,0.7851562 -0.1757812,1.2304687 v 3.257812525 z m 7.833984,-0.773437495 c -0.392578,0.33691406 -0.767578,0.57421875 -1.125,0.71484375 -0.360351,0.13183593 -0.74707,0.19921875 -1.1601559,0.19921875 -0.6884765,0 -1.2158203,-0.16699219 -1.5820312,-0.50390625 C 7.7192812,-0.6975625 7.5376406,-1.1252969 7.5376406,-1.6409219 c 0,-0.3046875 0.070312,-0.5800781 0.2109375,-0.8320312 0.140625,-0.2578125 0.319336,-0.459961 0.5390625,-0.609375 0.225586,-0.1552735 0.4804688,-0.272461 0.7617188,-0.3515625 0.2109375,-0.052734 0.5214843,-0.1054688 0.9375,-0.1523438 0.8496096,-0.099609 1.4794926,-0.2226562 1.8867186,-0.3632812 0,-0.1464844 0,-0.2402344 0,-0.28125 0,-0.4277344 -0.09961,-0.7294922 -0.292969,-0.9023438 -0.27539,-0.2402343 -0.676757,-0.3632812 -1.207031,-0.3632812 -0.4921874,0 -0.861328,0.09082 -1.1015624,0.2695312 -0.234375,0.1728516 -0.4072265,0.4775391 -0.515625,0.9140625 l -1.03125,-0.140625 c 0.09375,-0.4365234 0.2460938,-0.7910156 0.4570313,-1.0664062 0.2167968,-0.272461 0.5302734,-0.4804688 0.9375,-0.6210938 0.4042968,-0.1464843 0.8730468,-0.2226562 1.4062501,-0.2226562 0.530273,0 0.960937,0.064453 1.289062,0.1875 0.333985,0.1259765 0.580078,0.28125 0.738282,0.46875 0.155273,0.1875 0.263671,0.4277344 0.328125,0.7148437 0.03809,0.1816407 0.05859,0.5039063 0.05859,0.9726563 v 1.40625 c 0,0.984375 0.01758,1.6054687 0.05859,1.86328123 0.04687,0.2578125 0.134766,0.50976562 0.269531,0.749999995 H 12.166547 C 12.055219,-0.21709375 11.984906,-0.47490625 11.955609,-0.77373437 Z M 11.873578,-3.1292031 C 11.489789,-2.971 10.91557,-2.8391641 10.150922,-2.7307656 9.7114687,-2.6663125 9.4038516,-2.596 9.2251406,-2.5198281 9.0435,-2.4407266 8.902875,-2.3235391 8.8032656,-2.1682656 c -0.09375,0.149414 -0.140625,0.3134765 -0.140625,0.4921875 0,0.28125 0.1054688,0.515625 0.3164063,0.70312498 0.2167968,0.1875 0.5302734,0.28125 0.9375,0.28125 0.4042971,0 0.7646481,-0.0849609 1.0781251,-0.2578125 0.319336,-0.17871098 0.553711,-0.42480468 0.703125,-0.73828128 0.117187,-0.234375 0.175781,-0.5859375 0.175781,-1.0546875 z M 14.57182,-2.96875e-4 V -6.2229531 h 0.949219 v 0.8789062 c 0.451172,-0.6796875 1.113281,-1.0195312 1.980469,-1.0195312 0.375,0 0.717773,0.067383 1.03125,0.1992187 0.310547,0.1347657 0.544922,0.3105469 0.703125,0.5273438 0.155273,0.2197265 0.263672,0.4804687 0.328125,0.7851562 0.03809,0.1962891 0.05859,0.5361328 0.05859,1.0195313 V -2.96875e-4 H 18.567914 V -3.7854531 c 0,-0.4277344 -0.04394,-0.75 -0.128906,-0.9609375 -0.0791,-0.2167969 -0.222656,-0.3896485 -0.433594,-0.515625 -0.205078,-0.1230469 -0.445312,-0.1875 -0.726562,-0.1875 -0.454102,0 -0.84375,0.1464844 -1.171875,0.4335937 -0.322266,0.28125 -0.480469,0.8203125 -0.480469,1.6171875 v 3.398437525 z m 6.251953,-1.863281225 1.042969,-0.1640625 c 0.05274,0.421875 0.213867,0.7470703 0.480469,0.9726562 0.272461,0.21972659 0.647461,0.32812503 1.125,0.32812503 0.483398,0 0.84375,-0.0966797 1.078125,-0.29296873 0.234375,-0.2021485 0.351562,-0.4365235 0.351562,-0.703125 0,-0.234375 -0.102539,-0.421875 -0.304687,-0.5625 -0.149414,-0.09375 -0.509766,-0.2109375 -1.078125,-0.3515625 -0.773438,-0.1933594 -1.3125,-0.3632813 -1.617188,-0.5039063 -0.298828,-0.1464843 -0.524414,-0.3457031 -0.679687,-0.5976562 -0.149414,-0.2490235 -0.222656,-0.5273438 -0.222656,-0.8320313 0,-0.28125 0.06152,-0.5390625 0.1875,-0.7734375 0.123047,-0.234375 0.295898,-0.4277343 0.515625,-0.5859375 0.164062,-0.1230468 0.386718,-0.2255859 0.667968,-0.3046875 0.28711,-0.084961 0.591797,-0.1289062 0.914063,-0.1289062 0.492187,0 0.919922,0.070312 1.289062,0.2109375 0.366211,0.140625 0.635743,0.3339844 0.808594,0.5742187 0.178711,0.234375 0.304688,0.5566407 0.375,0.9609375 l -1.03125,0.140625 c -0.04687,-0.3193359 -0.18457,-0.5683593 -0.410156,-0.75 -0.228516,-0.1787109 -0.544922,-0.2695312 -0.949219,-0.2695312 -0.486328,0 -0.832031,0.082031 -1.042969,0.2460937 -0.205078,0.1582032 -0.304687,0.3398438 -0.304687,0.5507813 0,0.140625 0.04102,0.2666015 0.128906,0.375 0.08496,0.1113281 0.216797,0.2050781 0.398438,0.28125 0.108398,0.041016 0.421875,0.1289062 0.9375,0.2695312 0.741211,0.1962891 1.259765,0.3603516 1.558593,0.4921875 0.295899,0.1259766 0.527344,0.3105469 0.691407,0.5507813 0.169922,0.243164 0.257812,0.5449219 0.257812,0.9023437 0,0.3515625 -0.105469,0.6855469 -0.316406,0.99609378 -0.205078,0.3046875 -0.500977,0.54492187 -0.890625,0.71484375 -0.383789,0.16992187 -0.817383,0.2578125 -1.300781,0.2578125 -0.814453,0 -1.429688,-0.16699219 -1.851563,-0.50390625 C 21.210492,-0.6975625 20.940961,-1.1985391 20.823773,-1.8635781 Z m 6.398438,1.863281225 V -8.5901406 h 1.054687 V -2.96875e-4 Z M 29.510297,-3.1174844 c 0,-1.1484375 0.319336,-1.9980468 0.960937,-2.5546875 0.539063,-0.4599609 1.189453,-0.6914062 1.957032,-0.6914062 0.858398,0 1.558593,0.28125 2.097656,0.84375 0.544922,0.5566406 0.820312,1.3300781 0.820312,2.3203125 0,0.796875 -0.123047,1.4267578 -0.363281,1.8867187 -0.243164,0.46289065 -0.594726,0.82031253 -1.054687,1.07812503 -0.454102,0.24902343 -0.955079,0.375 -1.5,0.375 -0.867188,0 -1.570313,-0.27539063 -2.109375,-0.83203125 C 29.779828,-1.2542031 29.510297,-2.0627969 29.510297,-3.1174844 Z m 1.089844,0 c 0,0.796875 0.169921,1.3945313 0.515625,1.7929688 0.351562,0.39843748 0.788086,0.59765623 1.3125,0.59765623 0.521484,0 0.955078,-0.19921875 1.300781,-0.59765623 0.351562,-0.3984375 0.527344,-1.0078125 0.527344,-1.828125 0,-0.7646485 -0.175782,-1.3476563 -0.527344,-1.7460938 -0.345703,-0.3984375 -0.779297,-0.5976562 -1.300781,-0.5976562 -0.524414,0 -0.960938,0.1992187 -1.3125,0.5976562 -0.345704,0.3925782 -0.515625,0.984375 -0.515625,1.78125 z m 10.034179,0.8320313 1.042969,0.140625 c -0.117187,0.711914 -0.410156,1.27148435 -0.878906,1.67578123 -0.462891,0.40722656 -1.03125,0.609375 -1.710938,0.609375 -0.852539,0 -1.541015,-0.27539063 -2.0625,-0.83203125 -0.515625,-0.56249998 -0.773437,-1.36230468 -0.773437,-2.40234378 0,-0.6708984 0.108398,-1.2568359 0.328125,-1.7578125 0.225586,-0.5068359 0.565429,-0.8847656 1.019531,-1.1367187 0.459961,-0.2490235 0.955078,-0.375 1.488281,-0.375 0.679688,0 1.233399,0.1728515 1.664063,0.515625 0.427734,0.336914 0.703125,0.8203125 0.820312,1.453125 l -1.019531,0.1523437 c -0.102539,-0.4130859 -0.27832,-0.7265625 -0.527344,-0.9375 -0.243164,-0.2109375 -0.539062,-0.3164062 -0.890625,-0.3164062 -0.533203,0 -0.966797,0.1933594 -1.300781,0.5742187 -0.328125,0.375 -0.492187,0.9785157 -0.492187,1.8046875 0,0.8378907 0.158203,1.4472657 0.480468,1.828125 0.319336,0.37500003 0.738282,0.56250003 1.253907,0.56250003 0.413085,0 0.755859,-0.12304688 1.03125,-0.37500003 0.28125,-0.2578125 0.457031,-0.6503906 0.527343,-1.1835937 z m 6,1.51171873 c -0.392578,0.33691406 -0.767578,0.57421875 -1.125,0.71484375 -0.360351,0.13183593 -0.74707,0.19921875 -1.160156,0.19921875 -0.688477,0 -1.21582,-0.16699219 -1.582031,-0.50390625 -0.369141,-0.33398438 -0.550781,-0.76171878 -0.550781,-1.27734378 0,-0.3046875 0.07031,-0.5800781 0.210937,-0.8320312 0.140625,-0.2578125 0.319336,-0.459961 0.539063,-0.609375 0.225585,-0.1552735 0.480468,-0.272461 0.761718,-0.3515625 0.210938,-0.052734 0.521485,-0.1054688 0.9375,-0.1523438 0.84961,-0.099609 1.479492,-0.2226562 1.886719,-0.3632812 0,-0.1464844 0,-0.2402344 0,-0.28125 0,-0.4277344 -0.09961,-0.7294922 -0.292969,-0.9023438 -0.27539,-0.2402343 -0.676758,-0.3632812 -1.207031,-0.3632812 -0.492187,0 -0.861328,0.09082 -1.101562,0.2695312 -0.234375,0.1728516 -0.407227,0.4775391 -0.515625,0.9140625 l -1.03125,-0.140625 c 0.09375,-0.4365234 0.246093,-0.7910156 0.457031,-1.0664062 0.216797,-0.272461 0.530273,-0.4804688 0.9375,-0.6210938 0.404297,-0.1464843 0.873047,-0.2226562 1.40625,-0.2226562 0.530273,0 0.960937,0.064453 1.289062,0.1875 0.333985,0.1259765 0.580078,0.28125 0.738282,0.46875 0.155273,0.1875 0.263671,0.4277344 0.328125,0.7148437 0.03809,0.1816407 0.05859,0.5039063 0.05859,0.9726563 v 1.40625 c 0,0.984375 0.01758,1.6054687 0.05859,1.86328123 0.04687,0.2578125 0.134766,0.50976562 0.269531,0.749999995 H 46.845258 C 46.73393,-0.21709375 46.663617,-0.47490625 46.63432,-0.77373437 Z M 46.552289,-3.1292031 C 46.1685,-2.971 45.594281,-2.8391641 44.829633,-2.7307656 44.39018,-2.6663125 44.082562,-2.596 43.903852,-2.5198281 c -0.181641,0.079101 -0.322266,0.196289 -0.421875,0.3515625 -0.09375,0.149414 -0.140625,0.3134765 -0.140625,0.4921875 0,0.28125 0.105468,0.515625 0.316406,0.70312498 0.216797,0.1875 0.530273,0.28125 0.9375,0.28125 0.404297,0 0.764648,-0.0849609 1.078125,-0.2578125 0.319336,-0.17871098 0.553711,-0.42480468 0.703125,-0.73828128 0.117187,-0.234375 0.175781,-0.5859375 0.175781,-1.0546875 z m 4.998047,2.17968748 0.152344,0.9375 c -0.298828,0.06152343 -0.5625,0.09375 -0.796875,0.09375 -0.383789,0 -0.679688,-0.05859375 -0.890625,-0.17578125 -0.210938,-0.12304688 -0.360352,-0.28417969 -0.445313,-0.48046875 -0.08789,-0.20214844 -0.128906,-0.62109378 -0.128906,-1.25390628 v -3.5742187 h -0.773438 v -0.8203125 h 0.773438 v -1.546875 l 1.054687,-0.6328125 v 2.1796875 h 1.054688 v 0.8203125 h -1.054688 v 3.6328125 c 0,0.3046875 0.01465,0.5009765 0.04687,0.5859375 0.03809,0.087891 0.09961,0.1582031 0.1875,0.21093748 0.08496,0.046875 0.205079,0.0703125 0.363282,0.0703125 0.117187,0 0.269531,-0.0146484 0.457031,-0.046875 z m 1.037109,-6.43359378 v -1.2070312 h 1.054688 v 1.2070312 z m 0,7.382812525 V -6.2229531 h 1.054688 V -2.96875e-4 Z M 54.855023,-3.1174844 c 0,-1.1484375 0.319336,-1.9980468 0.960938,-2.5546875 0.539062,-0.4599609 1.189453,-0.6914062 1.957031,-0.6914062 0.858399,0 1.558594,0.28125 2.097656,0.84375 0.544922,0.5566406 0.820313,1.3300781 0.820313,2.3203125 0,0.796875 -0.123047,1.4267578 -0.363281,1.8867187 -0.243164,0.46289065 -0.594727,0.82031253 -1.054688,1.07812503 -0.454101,0.24902343 -0.955078,0.375 -1.5,0.375 -0.867187,0 -1.570312,-0.27539063 -2.109375,-0.83203125 C 55.124555,-1.2542031 54.855023,-2.0627969 54.855023,-3.1174844 Z m 1.089844,0 c 0,0.796875 0.169922,1.3945313 0.515625,1.7929688 0.351563,0.39843748 0.788086,0.59765623 1.3125,0.59765623 0.521485,0 0.955078,-0.19921875 1.300781,-0.59765623 0.351563,-0.3984375 0.527344,-1.0078125 0.527344,-1.828125 0,-0.7646485 -0.175781,-1.3476563 -0.527344,-1.7460938 -0.345703,-0.3984375 -0.779296,-0.5976562 -1.300781,-0.5976562 -0.524414,0 -0.960937,0.1992187 -1.3125,0.5976562 -0.345703,0.3925782 -0.515625,0.984375 -0.515625,1.78125 z m 5.979492,3.117187525 V -6.2229531 h 0.949219 v 0.8789062 c 0.451172,-0.6796875 1.113281,-1.0195312 1.980469,-1.0195312 0.375,0 0.717773,0.067383 1.03125,0.1992187 0.310547,0.1347657 0.544922,0.3105469 0.703125,0.5273438 0.155273,0.2197265 0.263672,0.4804687 0.328125,0.7851562 0.03809,0.1962891 0.05859,0.5361328 0.05859,1.0195313 V -2.96875e-4 H 65.920453 V -3.7854531 c 0,-0.4277344 -0.04394,-0.75 -0.128906,-0.9609375 -0.0791,-0.2167969 -0.222656,-0.3896485 -0.433594,-0.515625 -0.205078,-0.1230469 -0.445312,-0.1875 -0.726562,-0.1875 -0.454102,0 -0.84375,0.1464844 -1.171875,0.4335937 -0.322266,0.28125 -0.480469,0.8203125 -0.480469,1.6171875 v 3.398437525 z m 0,0"
       style="fill:#000000;fill-opacity:1;fill-rule:nonzero;stroke:none"
       aria-label="translocation"
       transform="matrix(0.35277776,0,0,0.35277776,95.32003,136.62413)"
       clip-path="url(#clipPath163)" />
  </g>
</svg>
